<svg xmlns="http://www.w3.org/2000/svg" version="1.1" xmlns:xlink="http://www.w3.org/1999/xlink" viewBox="0 0 16.634385686775257 6.4651299834531795"><g transform="matrix(1,0,0,1,5.437532179320638,2.09424399563284)"><g clip-path="url(#SvgjsClipPath1001)"><g clip-path="url(#SvgjsClipPath1000d31a368b-1656-45a8-a68a-666fcd3cae2b)"><path d=" M -3.9030075479302377 -0.8767423388861955 L -3.9030075479302377 -0.37573503036278755 L -3.618180878033407 -0.16466612732399222 L -3.618180878033407 0.13543852841542625 L -3.9794737717041877 0.8068306653181538 L -4.081040906050978 1.4794435151970695 L -3.9080048416765023 2.048810750386937 L -3.4508478320945537 2.510736170032115 L -2.702646145893323 2.731990396965969 L -2.0922896577999337 2.7091020286624667 L -1.513519117965377 2.437169139576609 L -1.018729816164421 2.0496118432775594 L -0.6376003366306042 1.6257192622967012 L -0.46975230240492216 1.3309361521878464 L -1.1920138378621843 1.3001894441001423 L -1.893923799169582 1.0509732605555098 L -2.2397861178757523 0.8395228847116567 L -2.6416104970839838 0.7805090417691269 L -2.912456188675425 0.7805090417691269 L -2.880660430373811 0.4202651983122567 L -2.912456188675425 -0.7046599565243655 L -3.180765086113229 -1.1208849341235512 L -3.5450716149439705 -1.2022721570827541 L -3.8979339596229616 -1.0089798867596789 L -3.9030075479302377 -0.8767423388861955 Z" fill="#fffff2" transform="matrix(1,0,0,1,0,0)" fill-rule="nonzero"></path></g><g clip-path="url(#SvgjsClipPath1000d31a368b-1656-45a8-a68a-666fcd3cae2b)"><path d=" M -3.4508478320945537 -0.7432840780365253 C -3.4508478320945537 -0.6912457149702916 -3.493033251877737 -0.6490602951871083 -3.5450716149439705 -0.6490602951871083 C -3.5971099780102045 -0.6490602951871083 -3.6392953977933877 -0.6912457149702916 -3.6392953977933877 -0.7432840780365253 C -3.6392953977933877 -0.795322441102759 -3.5971099780102045 -0.8375078608859423 -3.5450716149439705 -0.8375078608859423 C -3.493033251877737 -0.8375078608859423 -3.4508478320945537 -0.795322441102759 -3.4508478320945537 -0.7432840780365253 Z" fill="#57647a" transform="matrix(1,0,0,1,0,0)" fill-rule="nonzero"></path></g><g clip-path="url(#SvgjsClipPath1000d31a368b-1656-45a8-a68a-666fcd3cae2b)"><path d=" M -4.013634661397164 -0.701264848559346 L -4.436230234840825 -0.4944112200164458 L -4.447254798907012 -0.3909939425651221 L -3.96955547877267 -0.3541245959562309 L -3.9776045549594015 -0.7046599565243655 L -4.013634661397164 -0.701264848559346 Z" fill="#ffb07b" transform="matrix(1,0,0,1,0,0)" fill-rule="nonzero"></path></g><g clip-path="url(#SvgjsClipPath1000d31a368b-1656-45a8-a68a-666fcd3cae2b)"><path d=" M -4.043198803789188 -0.624340857419326 L -4.422249256535435 -0.4126234506119316 L -4.015751835465238 -0.37573503036278755 L -4.043198803789188 -0.624340857419326 Z" fill="#fe9e60" transform="matrix(1,0,0,1,0,0)" fill-rule="nonzero"></path></g><g clip-path="url(#SvgjsClipPath1000d31a368b-1656-45a8-a68a-666fcd3cae2b)"><path d=" M -3.2456154629731513 -1.086552381668298 C -3.2456154629731513 -1.086552381668298 -3.4302673742616547 -1.0947349733368 -3.336024517771985 -1.0340617236922667 C -3.2417816612823156 -0.9733884740477332 -3.1604135119633647 -0.886908589141001 -3.1604135119633647 -0.7165237607616807 L -3.1604135119633647 0.5817617103337174 C -3.1604135119633647 0.7076477360029787 -3.053601126547022 0.8131821875223764 -2.9862139555334606 0.8386073499795168 C -2.9188267845199007 0.8640325124366572 -2.912456188675425 0.3490632992481124 -2.912456188675425 0.3490632992481124 L -2.951881403078208 -0.8296876683822455 Z" fill="#dce6d9" transform="matrix(1,0,0,1,0,0)" fill-rule="nonzero"></path></g><g clip-path="url(#SvgjsClipPath1000d31a368b-1656-45a8-a68a-666fcd3cae2b)"><path d=" M -2.841883719739627 1.082120515088526 C -2.389991034867484 1.0630468748356077 -1.7222610368933164 1.415909219514598 -0.8841462105398286 1.5074626927286061 C -0.7084207628896908 1.526650774823042 -1.3693986922143253 1.8774913136352238 -1.3693986922143253 1.8774913136352238 L -2.132344302331062 1.8774913136352238 L -2.700738781868031 1.5189068768803573 Z" fill="#dce6d9" transform="matrix(1,0,0,1,0,0)" fill-rule="nonzero"></path></g><g clip-path="url(#SvgjsClipPath1000d31a368b-1656-45a8-a68a-666fcd3cae2b)"><path d=" M -0.7075433754380565 1.5799425256896964 L -0.9669448828777472 1.6714959989037046 C -0.9669448828777472 1.6714959989037046 -1.3827502403913683 1.774493656269464 -1.703187396640398 1.9766742429503996 C -2.0236245528894274 2.1788548296313346 -2.277933398381588 2.330166017757737 -2.7865701630061643 2.330166017757737 C -3.2952069276307396 2.330166017757737 -3.663957614640411 2.12163390887258 -3.9640431967395764 1.74525376576174 L -3.9030075479302373 2.075857172265575 L -3.427444475504223 2.50056991977731 L -2.893382548422507 2.7040093667149367 L -2.335802822908943 2.731990396965969 L -1.728612559097538 2.5743086129950923 L -1.1742181315062115 2.2208168381877558 L -0.6960991912863053 1.6943843672072065 Z" fill="#dce6d9" transform="matrix(1,0,0,1,0,0)" fill-rule="nonzero"></path></g><g clip-path="url(#SvgjsClipPath1000d31a368b-1656-45a8-a68a-666fcd3cae2b)"><path d=" M -0.659058181915138 1.2733719059045387 C -0.8603281303004113 1.2741891877903477 -1.0606020299834196 1.245089176753469 -1.2533165176350636 1.1870255364795768 C -1.4767642131980034 1.1196383654660165 -1.6860211204127715 1.0145426076724358 -1.8948584075419745 0.9120790122337581 C -1.9289811499544456 0.8950081042073956 -1.9632946287694462 0.8782805217055862 -1.9975318130234343 0.8614575710025123 C -2.1253252027179874 0.7986480736496524 -2.2548924409560622 0.7373453938767722 -2.3917839570512576 0.6969283501808381 C -2.534836258948146 0.6546993106608767 -2.600926422424508 0.6507129198480166 -2.821398630107992 0.6507129198480166 C -2.821398630107992 0.5878652752146509 -2.8211888200652098 -0.20107770656681323 -2.821665661071533 -0.5156783288984498 C -2.821951765675327 -0.7106490795637819 -2.899371671461923 -0.9085953181085693 -3.036587439441418 -1.0486339848454964 C -3.171342707828287 -1.1860404892275205 -3.3671717723050003 -1.2651960962771318 -3.5587664886455657 -1.2467709597928127 C -3.750361204986131 -1.2283458233084936 -3.932094849315938 -1.1080293005930841 -4.012452095701484 -0.9331240194738223 C -4.023572027968934 -0.9089386436331215 -4.033223289936911 -0.8832464502124404 -4.051610279140725 -0.8640011471972457 C -4.0681089779595 -0.8467204291281016 -4.090253474293138 -0.8361536324279848 -4.11176854049843 -0.8258538666914088 C -4.1869186830949285 -0.789613950210864 -4.459957843315455 -0.6574336232581393 -4.53266655995958 -0.5933080447278274 C -4.594617743501059 -0.538662065403216 -4.607740407995067 -0.43444369506127 -4.576211680656993 -0.3618112729781564 C -4.547296042033569 -0.29520612121496526 -4.492459326306428 -0.2603395068326304 -4.421715194608354 -0.2536637327441089 C -4.419502652339015 -0.25345392270132694 -4.417290110069677 -0.2533204072195562 -4.415077567800338 -0.25318689173778586 C -4.329246186662205 -0.24786534610722177 -4.242384828950415 -0.2510506440294593 -4.156458079611018 -0.2512795277124942 C -4.047051679120278 -0.2516610005175527 -3.9196397622307826 -0.2715929545818524 -3.8214105149282527 -0.2138570455362685 C -3.7709988837397894 -0.18423568222348607 -3.730658134604867 -0.13582678326157915 -3.716162168012649 -0.07917807171041158 C -3.699472732791345 -0.013965295685683499 -3.7174401019095944 0.0553292393531688 -3.7443530083064624 0.11703246557135993 C -3.8028327893219105 0.25110108290912336 -3.8665768950471637 0.3827473479347663 -3.9274599547344793 0.5156715468573545 C -4.057713844021659 0.8004028485529202 -4.1696951859465425 1.0939080247648294 -4.160158365820084 1.4120181969030028 C -4.149248243595414 1.779796128259776 -3.979721729027476 2.1276421055522494 -3.7098869403694392 2.3754849869986705 C -3.5941290176744767 2.481801457768438 -3.465458240528289 2.5679570907908706 -3.3241988608151756 2.6357448082497426 C -3.188203805811867 2.7009957315549764 -3.0446365156281505 2.743510875678732 -2.897445233796379 2.774658130211747 C -2.888289886474978 2.7765654942370395 -2.872840237870114 2.779579129397 -2.868014606886126 2.779979675842311 C -2.8676331340810677 2.91349515761274 -2.867137219434491 3.2091365815329764 -2.867137219434491 3.2091365815329764 L -3.072484030397411 3.2091365815329764 C -3.072484030397411 3.2091365815329764 -3.1411491353079173 3.209594348899045 -3.1748141103543186 3.217948603329824 C -3.248762613614883 3.2363546661738907 -3.3130026339867125 3.282989716592276 -3.3632235287726466 3.3518646315455642 L -4.047337783724071 3.3518646315455642 C -4.078762717701604 3.351399587026023 -4.10800161921355 3.367898251281786 -4.123849866593161 3.3950381812170694 C -4.139698113972772 3.422178111152353 -4.139698113972772 3.4557507083686794 -4.123849866593161 3.482890638303963 C -4.10800161921355 3.5100305682392463 -4.078762717701604 3.526529232495009 -4.047337783724071 3.526064187975468 L -1.0998309345198298 3.526064187975468 C -1.0684060005422973 3.526529232495009 -1.0391670990303523 3.5100305682392463 -1.0233188516507412 3.482890638303963 C -1.00747060427113 3.4557507083686794 -1.00747060427113 3.422178111152353 -1.0233188516507412 3.3950381812170694 C -1.0391670990303523 3.367898251281786 -1.0684060005422973 3.351399587026023 -1.0998309345198298 3.3518646315455642 L -2.314821818630733 3.3518646315455642 L -2.314821818630733 2.792263100165191 C -1.1958094922725153 2.6518811079037112 -0.6268046562474527 1.7135152283808839 -0.41901641933216016 1.4089664144625351 C -0.4117928146576517 1.3985868128679908 -0.406435454947335 1.3870265342641648 -0.4031852979222377 1.3748055247695585 C -0.3709508458948054 1.2443608990798498 -0.5914039799380362 1.2730667276604926 -0.659058181915138 1.2733719059045387 Z M -4.046040776186873 -0.4489778089339941 C -4.046040776186873 -0.4294082540344999 -4.046822795437243 -0.4284545720218539 -4.066335129415978 -0.428416424741348 C -4.157221025221134 -0.428206614698566 -4.375843089800085 -0.4277488473324963 -4.394268226284405 -0.4277297736922434 C -4.401439915019502 -0.4277297736922434 -4.411434502512031 -0.4294464013150061 -4.413341866537323 -0.4387352641181772 C -4.4152492305626145 -0.44764265411629023 -4.414409990391486 -0.4550241528941693 -4.40443447653921 -0.46093698137257433 C -4.151556154066018 -0.6091010188572447 -4.047757403809635 -0.6513109847369531 -4.047757403809635 -0.6513109847369531 C -4.047757403809635 -0.6513109847369531 -4.046002628906367 -0.5087736711268933 -4.046040776186873 -0.44901595621449986 Z M -2.816801882807039 0.8395991792726678 C -2.63485842843445 0.8118088854241663 -2.451045757317076 0.8600079743432907 -2.283769932298981 0.9295313930651787 C -2.0911261657445053 1.0096406821274357 -1.910727676232403 1.1166819512268142 -1.7206207038315653 1.2026277742064642 C -1.5877727994699882 1.262671593722651 -1.4518349653874383 1.316287596473605 -1.3122159187360758 1.3584594150728073 C -1.242558984532418 1.379440419351017 -1.1720246628771256 1.397674819432807 -1.1007464692519702 1.412361522427555 C -1.0289342136997317 1.4271435936235666 -0.9551955204819498 1.4301572287835278 -0.8841652841800811 1.4496886364025163 C -0.8838219586555289 1.4496886364025163 -0.9232853203388167 1.4918223077212136 -0.9834817289770275 1.5368933196388592 C -1.2015506579886432 1.7001064592830823 -1.4602082934584706 1.8174665677592896 -1.735612585070359 1.8291205619538224 C -1.9995154716097385 1.8402786415017796 -2.266775318833631 1.7727388813661957 -2.4759940787678936 1.6065121065620114 C -2.704267405314821 1.4250836404762512 -2.8447256921373123 1.1298999839220862 -2.816801882807039 0.8395610319921618 Z M -2.5006944428954228 3.2091938024537336 L -2.681493478852836 3.2091938024537336 C -2.681493478852836 3.2091938024537336 -2.6822373508227 2.806530183074373 -2.6822373508227 2.7961541227767848 C -2.661790408471571 2.796955215667408 -2.520607323319469 2.7975083512347423 -2.5008661056576993 2.7975083512347423 C -2.5008661056576993 2.8301814969879935 -2.5006944428954228 3.2091556551732294 -2.5006944428954228 3.2091556551732294 Z M -1.0619888322580393 1.9575052344962163 C -1.325033404986037 2.2194053888090393 -1.6485604909560387 2.43220999311085 -2.0041122189106915 2.5436191258281458 C -2.4416615263126404 2.680720451966123 -2.9389494749867286 2.6554669522712597 -3.334994541198327 2.4244088742474066 C -3.731039607409925 2.1933507962235526 -4.005375775167651 1.7441284209868184 -3.97752826039839 1.2864373494777872 C -3.955364690424499 0.9227793244156446 -3.758887122179186 0.597115990737316 -3.6101699491271813 0.26452892564717767 C -3.5721752577433676 0.17955585832042664 -3.536564771391169 0.09113046210789633 -3.532101539571986 -0.0018344604848279378 C -3.522564719445527 -0.1985027651326694 -3.6739522021329405 -0.39038358607702894 -3.867397061578039 -0.4270431226431384 C -3.8826559737803734 -0.5570490546070304 -3.9014244357892456 -0.7674503802369734 -3.8371271944966576 -0.8874426510680831 C -3.7882414545284275 -0.9786718723977919 -3.675363651511657 -1.0469173572227342 -3.5758183230316756 -1.0615849865772282 C -3.377147286157277 -1.0908820980057108 -3.1655443211914003 -0.9835737979427916 -3.0717783057080537 -0.8059982071881218 C -2.994758946366769 -0.6600657856130429 -2.9962466903064966 -0.4868962057567965 -2.999584577350757 -0.3219282912093051 C -3.004276692852975 -0.08900099644066528 -3.0089751662352775 0.1439326562080585 -3.013679997497664 0.3768726667368665 C -3.021442969080602 0.760977634150138 -3.022797197538559 1.1696685238494202 -2.819662928844978 1.4957705512535664 C -2.6178256676885954 1.8197554045896382 -2.2325190609393903 2.0053037769700284 -1.8508936667589992 2.013944136004601 C -1.616631217172655 2.019246607994913 -1.4716906248907282 1.9799167617933946 -1.2934856040077118 1.9145513966466428 C -1.1405150091793046 1.8584176733823055 -0.9739449088505681 1.7592347440671297 -0.8005082980307803 1.6401961552486661 C -0.8626692916150422 1.7458831958900862 -1.007915062141016 1.9036412744219746 -1.0619888322580393 1.9574670872157103 Z" fill="#57647a" transform="matrix(1,0,0,1,0,0)" fill-rule="nonzero"></path></g></g><g><path d=" M 0.0375 2.220446049250313e-16 L 0.495 2.220446049250313e-16 L 0.495 0.028500000000000192 L 0.41250000000000003 0.028500000000000192 L 0.41250000000000003 0.5025000000000003 L 0.4245 0.4995000000000003 L 0.8475 0.028500000000000192 L 0.729 0.028500000000000192 L 0.729 2.220446049250313e-16 L 0.9915 2.220446049250313e-16 L 0.9915 0.028500000000000192 L 0.9015 0.028500000000000192 L 0.6435 0.3165000000000002 L 1.0035 1.0215000000000003 L 1.0845 1.0215000000000003 L 1.0845 1.0500000000000003 L 0.603 1.0500000000000003 L 0.603 1.0215000000000003 L 0.6735 1.0215000000000003 L 0.426 0.5430000000000003 L 0.41250000000000003 0.5460000000000003 L 0.41250000000000003 1.0215000000000003 L 0.495 1.0215000000000003 L 0.495 1.0500000000000003 L 0.0375 1.0500000000000003 L 0.0375 1.0215000000000003 L 0.12 1.0215000000000003 L 0.12 0.028500000000000192 L 0.0375 0.028500000000000192 L 0.0375 2.220446049250313e-16 M 1.4520263671875002 0.6975000000000002 L 1.4955263671875003 0.6975000000000002 L 1.4955263671875003 0.5820000000000003 Q 1.4955263671875003 0.4395000000000002 1.4797763671875002 0.39075000000000026 Q 1.4640263671875002 0.3420000000000003 1.4190263671875003 0.3420000000000003 Q 1.3920263671875002 0.3420000000000003 1.3702763671875002 0.3562500000000003 Q 1.3485263671875003 0.3705000000000003 1.3485263671875003 0.3952500000000002 Q 1.3485263671875003 0.42000000000000026 1.3575263671875002 0.44550000000000023 L 1.3950263671875003 0.44550000000000023 Q 1.4070263671875003 0.4770000000000002 1.4070263671875003 0.5212500000000002 Q 1.4070263671875003 0.5655000000000003 1.3695263671875002 0.5977500000000002 Q 1.3320263671875003 0.6300000000000003 1.2750263671875002 0.6300000000000003 Q 1.1460263671875002 0.6300000000000003 1.1460263671875002 0.5055000000000003 Q 1.1460263671875002 0.3210000000000003 1.4595263671875003 0.3210000000000003 Q 1.6380263671875004 0.3210000000000003 1.7062763671875003 0.38175000000000026 Q 1.7745263671875002 0.4425000000000002 1.7745263671875002 0.6045000000000003 L 1.7745263671875002 0.9090000000000003 Q 1.7745263671875002 0.9870000000000003 1.8180263671875 0.9870000000000003 Q 1.8690263671875003 0.9870000000000003 1.8780263671875002 0.8325000000000002 L 1.9005263671875001 0.8340000000000003 Q 1.8945263671875003 0.9660000000000003 1.8510263671875002 1.0155000000000003 Q 1.8075263671875001 1.0650000000000002 1.7085263671875004 1.0650000000000002 Q 1.5285263671875002 1.0650000000000002 1.5015263671875 0.9540000000000003 Q 1.4820263671875002 1.0110000000000003 1.4430263671875 1.0380000000000003 Q 1.4040263671875002 1.0650000000000002 1.3290263671875002 1.0650000000000002 Q 1.1070263671875002 1.0650000000000002 1.1070263671875002 0.8835000000000003 Q 1.1070263671875002 0.7770000000000002 1.1917763671875001 0.7372500000000002 Q 1.2765263671875002 0.6975000000000002 1.4520263671875002 0.6975000000000002 M 1.4002763671875003 0.9825000000000003 Q 1.4085263671875001 1.0050000000000003 1.4317763671875001 1.0050000000000003 Q 1.4550263671875001 1.0050000000000003 1.4752763671875002 0.9667500000000002 Q 1.4955263671875003 0.9285000000000003 1.4955263671875003 0.8610000000000002 L 1.4955263671875003 0.7215000000000003 L 1.4850263671875004 0.7215000000000003 Q 1.3920263671875002 0.7215000000000003 1.3920263671875002 0.8580000000000003 L 1.3920263671875002 0.8820000000000002 Q 1.3920263671875002 0.9600000000000003 1.4002763671875003 0.9825000000000003 M 1.9185432128906252 0.3360000000000003 L 2.280043212890625 0.3360000000000003 L 2.280043212890625 0.4740000000000002 Q 2.304043212890625 0.40500000000000025 2.3535432128906253 0.3630000000000002 Q 2.4030432128906254 0.3210000000000003 2.503543212890625 0.3210000000000003 Q 2.736043212890625 0.3210000000000003 2.736043212890625 0.5715000000000002 L 2.736043212890625 1.0230000000000004 L 2.820043212890625 1.0230000000000004 L 2.820043212890625 1.0500000000000003 L 2.395543212890625 1.0500000000000003 L 2.395543212890625 1.0230000000000004 L 2.457043212890625 1.0230000000000004 L 2.457043212890625 0.5355000000000003 Q 2.457043212890625 0.44550000000000023 2.445043212890625 0.41925000000000023 Q 2.433043212890625 0.39300000000000024 2.4015432128906253 0.39300000000000024 Q 2.3535432128906253 0.39300000000000024 2.3167932128906252 0.4560000000000003 Q 2.280043212890625 0.5190000000000002 2.280043212890625 0.6090000000000002 L 2.280043212890625 1.0230000000000004 L 2.3445432128906254 1.0230000000000004 L 2.3445432128906254 1.0500000000000003 L 1.9185432128906252 1.0500000000000003 L 1.9185432128906252 1.0230000000000004 L 2.0010432128906253 1.0230000000000004 L 2.0010432128906253 0.3630000000000002 L 1.9185432128906252 0.3630000000000002 L 1.9185432128906252 0.3360000000000003 M 3.1995849609375 0.6975000000000002 L 3.2430849609375 0.6975000000000002 L 3.2430849609375 0.5820000000000003 Q 3.2430849609375 0.4395000000000002 3.2273349609375 0.39075000000000026 Q 3.2115849609375 0.3420000000000003 3.1665849609375 0.3420000000000003 Q 3.1395849609375 0.3420000000000003 3.1178349609375 0.3562500000000003 Q 3.0960849609375 0.3705000000000003 3.0960849609375 0.3952500000000002 Q 3.0960849609375 0.42000000000000026 3.1050849609375 0.44550000000000023 L 3.1425849609375 0.44550000000000023 Q 3.1545849609375 0.4770000000000002 3.1545849609375 0.5212500000000002 Q 3.1545849609375 0.5655000000000003 3.1170849609375 0.5977500000000002 Q 3.0795849609375 0.6300000000000003 3.0225849609375 0.6300000000000003 Q 2.8935849609375 0.6300000000000003 2.8935849609375 0.5055000000000003 Q 2.8935849609375 0.3210000000000003 3.2070849609375 0.3210000000000003 Q 3.3855849609375 0.3210000000000003 3.4538349609375 0.38175000000000026 Q 3.5220849609375 0.4425000000000002 3.5220849609375 0.6045000000000003 L 3.5220849609375 0.9090000000000003 Q 3.5220849609375 0.9870000000000003 3.5655849609375 0.9870000000000003 Q 3.6165849609375 0.9870000000000003 3.6255849609375 0.8325000000000002 L 3.6480849609375 0.8340000000000003 Q 3.6420849609375 0.9660000000000003 3.5985849609375 1.0155000000000003 Q 3.5550849609375 1.0650000000000002 3.4560849609375 1.0650000000000002 Q 3.2760849609375002 1.0650000000000002 3.2490849609375 0.9540000000000003 Q 3.2295849609375002 1.0110000000000003 3.1905849609375 1.0380000000000003 Q 3.1515849609375 1.0650000000000002 3.0765849609375 1.0650000000000002 Q 2.8545849609375 1.0650000000000002 2.8545849609375 0.8835000000000003 Q 2.8545849609375 0.7770000000000002 2.9393349609375 0.7372500000000002 Q 3.0240849609375 0.6975000000000002 3.1995849609375 0.6975000000000002 M 3.1478349609375 0.9825000000000003 Q 3.1560849609375 1.0050000000000003 3.1793349609375 1.0050000000000003 Q 3.2025849609375 1.0050000000000003 3.2228349609375 0.9667500000000002 Q 3.2430849609375 0.9285000000000003 3.2430849609375 0.8610000000000002 L 3.2430849609375 0.7215000000000003 L 3.2325849609375 0.7215000000000003 Q 3.1395849609375 0.7215000000000003 3.1395849609375 0.8580000000000003 L 3.1395849609375 0.8820000000000002 Q 3.1395849609375 0.9600000000000003 3.1478349609375 0.9825000000000003 M 4.164101806640625 0.3780000000000002 Q 4.108601806640625 0.3780000000000002 4.066601806640625 0.4500000000000003 Q 4.024601806640625 0.5220000000000002 4.024601806640625 0.6210000000000002 L 4.024601806640625 1.0230000000000004 L 4.131101806640625 1.0230000000000004 L 4.131101806640625 1.0500000000000003 L 3.663101806640625 1.0500000000000003 L 3.663101806640625 1.0230000000000004 L 3.745601806640625 1.0230000000000004 L 3.745601806640625 0.3630000000000002 L 3.663101806640625 0.3630000000000002 L 3.663101806640625 0.3360000000000003 L 4.024601806640625 0.3360000000000003 L 4.024601806640625 0.4800000000000002 Q 4.044101806640625 0.4035000000000003 4.099601806640625 0.3622500000000003 Q 4.155101806640625 0.3210000000000003 4.225601806640625 0.3210000000000003 Q 4.296101806640625 0.3210000000000003 4.340351806640625 0.36075000000000024 Q 4.384601806640625 0.4005000000000003 4.384601806640625 0.4732500000000003 Q 4.384601806640625 0.5460000000000003 4.351601806640625 0.5850000000000002 Q 4.318601806640625 0.6240000000000003 4.250351806640625 0.6240000000000003 Q 4.182101806640625 0.6240000000000003 4.149851806640625 0.5790000000000002 Q 4.117601806640625 0.5340000000000003 4.141601806640625 0.45450000000000024 L 4.195601806640625 0.45450000000000024 Q 4.233101806640625 0.3780000000000002 4.164101806640625 0.3780000000000002 M 4.428094482421875 2.220446049250313e-16 L 4.885594482421875 2.220446049250313e-16 L 4.885594482421875 0.028500000000000192 L 4.803094482421875 0.028500000000000192 L 4.803094482421875 0.5025000000000003 L 4.815094482421875 0.4995000000000003 L 5.238094482421875 0.028500000000000192 L 5.119594482421875 0.028500000000000192 L 5.119594482421875 2.220446049250313e-16 L 5.382094482421875 2.220446049250313e-16 L 5.382094482421875 0.028500000000000192 L 5.292094482421875 0.028500000000000192 L 5.0340944824218745 0.3165000000000002 L 5.394094482421875 1.0215000000000003 L 5.475094482421875 1.0215000000000003 L 5.475094482421875 1.0500000000000003 L 4.993594482421875 1.0500000000000003 L 4.993594482421875 1.0215000000000003 L 5.064094482421875 1.0215000000000003 L 4.816594482421875 0.5430000000000003 L 4.803094482421875 0.5460000000000003 L 4.803094482421875 1.0215000000000003 L 4.885594482421875 1.0215000000000003 L 4.885594482421875 1.0500000000000003 L 4.428094482421875 1.0500000000000003 L 4.428094482421875 1.0215000000000003 L 4.510594482421875 1.0215000000000003 L 4.510594482421875 0.028500000000000192 L 4.428094482421875 0.028500000000000192 L 4.428094482421875 2.220446049250313e-16 M 5.931140625 0.7545000000000003 L 5.931140625 0.6270000000000002 Q 5.931140625 0.48150000000000026 5.915390625 0.4147500000000003 Q 5.899640625 0.3480000000000002 5.842640625 0.3480000000000002 Q 5.809640625 0.3480000000000002 5.789390625 0.36675000000000024 Q 5.769140625 0.3855000000000003 5.760140625 0.42900000000000027 Q 5.746640625 0.4965000000000003 5.746640625 0.6345000000000003 L 5.746640625 0.7515000000000003 Q 5.746640625 0.9150000000000003 5.756390625 0.9480000000000003 Q 5.766140625 0.9810000000000003 5.776640625 1.0020000000000002 Q 5.793140625 1.0380000000000003 5.841140625 1.0380000000000003 Q 5.899640625 1.0380000000000003 5.917640625 0.9705000000000003 Q 5.931140625 0.9225000000000003 5.931140625 0.7545000000000003 M 5.554640625 0.9690000000000003 Q 5.458640625 0.8730000000000002 5.458640625 0.6937500000000003 Q 5.458640625 0.5145000000000003 5.561390625 0.4177500000000003 Q 5.664140625 0.3210000000000003 5.850140625 0.3210000000000003 Q 6.036140625 0.3210000000000003 6.127640625 0.4102500000000002 Q 6.219140625 0.4995000000000003 6.219140625 0.6825000000000003 Q 6.219140625 1.0650000000000002 5.838140625 1.0650000000000002 Q 5.650640625 1.0650000000000002 5.554640625 0.9690000000000003 M 6.261185302734375 0.3360000000000003 L 6.622685302734375 0.3360000000000003 L 6.622685302734375 0.4740000000000002 Q 6.672185302734375 0.3210000000000003 6.840935302734375 0.3210000000000003 Q 7.0096853027343755 0.3210000000000003 7.045685302734375 0.4830000000000002 Q 7.098185302734375 0.3210000000000003 7.266185302734375 0.3210000000000003 Q 7.486685302734375 0.3210000000000003 7.486685302734375 0.5715000000000002 L 7.486685302734375 1.0230000000000004 L 7.5706853027343755 1.0230000000000004 L 7.5706853027343755 1.0500000000000003 L 7.155185302734375 1.0500000000000003 L 7.155185302734375 1.0230000000000004 L 7.207685302734375 1.0230000000000004 L 7.207685302734375 0.5355000000000003 Q 7.207685302734375 0.4215000000000002 7.188185302734375 0.40200000000000025 Q 7.179185302734375 0.39300000000000024 7.164185302734375 0.39300000000000024 Q 7.120685302734375 0.39300000000000024 7.087685302734375 0.45150000000000023 Q 7.054685302734375 0.5100000000000002 7.054685302734375 0.6000000000000003 L 7.054685302734375 1.0230000000000004 L 7.108685302734375 1.0230000000000004 L 7.108685302734375 1.0500000000000003 L 6.723185302734375 1.0500000000000003 L 6.723185302734375 1.0230000000000004 L 6.775685302734375 1.0230000000000004 L 6.775685302734375 0.5355000000000003 Q 6.775685302734375 0.4215000000000002 6.756185302734375 0.40200000000000025 Q 6.747185302734375 0.39300000000000024 6.732185302734375 0.39300000000000024 Q 6.690185302734375 0.39300000000000024 6.656435302734375 0.4567500000000002 Q 6.622685302734375 0.5205000000000003 6.622685302734375 0.6090000000000002 L 6.622685302734375 1.0230000000000004 L 6.676685302734375 1.0230000000000004 L 6.676685302734375 1.0500000000000003 L 6.261185302734375 1.0500000000000003 L 6.261185302734375 1.0230000000000004 L 6.343685302734375 1.0230000000000004 L 6.343685302734375 0.3630000000000002 L 6.261185302734375 0.3630000000000002 L 6.261185302734375 0.3360000000000003 M 8.12568603515625 0.4387500000000003 Q 8.11068603515625 0.3855000000000003 8.06718603515625 0.3855000000000003 Q 8.02368603515625 0.3855000000000003 7.98918603515625 0.4417500000000003 Q 7.95468603515625 0.4980000000000002 7.95468603515625 0.5925000000000002 L 7.95468603515625 0.8670000000000002 Q 7.95468603515625 0.9315000000000002 7.98018603515625 0.9765000000000003 Q 8.00568603515625 1.0215000000000003 8.05518603515625 1.0215000000000003 Q 8.10468603515625 1.0215000000000003 8.12268603515625 0.9555000000000002 Q 8.14068603515625 0.8895000000000003 8.14068603515625 0.7245000000000003 L 8.14068603515625 0.6465000000000003 Q 8.14068603515625 0.4920000000000002 8.12568603515625 0.4387500000000003 M 7.95168603515625 0.3360000000000003 L 7.95168603515625 0.45450000000000024 Q 8.01018603515625 0.3210000000000003 8.15868603515625 0.3210000000000003 Q 8.28768603515625 0.3210000000000003 8.35893603515625 0.41400000000000026 Q 8.43018603515625 0.5070000000000002 8.43018603515625 0.6960000000000003 Q 8.43018603515625 0.8850000000000002 8.352936035156251 0.9750000000000003 Q 8.27568603515625 1.0650000000000002 8.12118603515625 1.0650000000000002 Q 8.04918603515625 1.0650000000000002 8.01318603515625 1.0470000000000004 Q 7.97718603515625 1.0290000000000004 7.95468603515625 0.9915000000000003 L 7.95468603515625 1.3800000000000003 L 8.14818603515625 1.3800000000000003 L 8.14818603515625 1.4070000000000003 L 7.59318603515625 1.4070000000000003 L 7.59318603515625 1.3800000000000003 L 7.67568603515625 1.3800000000000003 L 7.67568603515625 0.3630000000000002 L 7.59618603515625 0.3630000000000002 L 7.59618603515625 0.3360000000000003 L 7.95168603515625 0.3360000000000003 M 8.579455078125 0.9652500000000003 Q 8.482705078125 0.8655000000000003 8.482705078125 0.6877500000000003 Q 8.482705078125 0.5100000000000002 8.591455078125 0.4155000000000002 Q 8.700205078125 0.3210000000000003 8.868205078125 0.3210000000000003 Q 9.208705078125 0.3210000000000003 9.195205078125 0.6630000000000003 L 8.772205078125 0.6630000000000003 L 8.772205078125 0.7215000000000003 Q 8.772205078125 0.8685000000000003 8.809705078125 0.9435000000000002 Q 8.847205078125 1.0185000000000002 8.940205078125 1.0185000000000002 Q 9.114205078125 1.0185000000000002 9.168205078125 0.8325000000000002 L 9.195205078125 0.8370000000000003 Q 9.166705078125 0.9450000000000003 9.092455078124999 1.0050000000000003 Q 9.018205078125 1.0650000000000002 8.869705078125 1.0650000000000002 Q 8.676205078125 1.0650000000000002 8.579455078125 0.9652500000000003 M 8.773705078125 0.6330000000000002 L 8.928205078125 0.6330000000000002 L 8.928205078125 0.5595000000000003 Q 8.928205078125 0.4380000000000003 8.913955078125 0.39375000000000027 Q 8.899705078125 0.34950000000000025 8.856955078125 0.34950000000000025 Q 8.814205078125 0.34950000000000025 8.793955078125 0.39675000000000027 Q 8.773705078125 0.4440000000000003 8.773705078125 0.5595000000000003 L 8.773705078125 0.6330000000000002 M 9.32419189453125 0.8355000000000002 L 9.32419189453125 0.3630000000000002 L 9.24169189453125 0.3630000000000002 L 9.24169189453125 0.3360000000000003 L 9.32419189453125 0.3360000000000003 L 9.32419189453125 0.1425000000000003 L 9.60319189453125 0.07350000000000023 L 9.60319189453125 0.3360000000000003 L 9.79819189453125 0.3360000000000003 L 9.79819189453125 0.3630000000000002 L 9.60319189453125 0.3630000000000002 L 9.60319189453125 0.8685000000000003 Q 9.60319189453125 0.9390000000000003 9.61744189453125 0.9720000000000003 Q 9.63169189453125 1.0050000000000003 9.67669189453125 1.0050000000000003 Q 9.72169189453125 1.0050000000000003 9.75544189453125 0.9600000000000003 Q 9.78919189453125 0.9150000000000003 9.79969189453125 0.8370000000000003 L 9.82519189453125 0.8400000000000003 Q 9.81319189453125 0.9435000000000002 9.75919189453125 1.0042500000000003 Q 9.70519189453125 1.0650000000000002 9.58069189453125 1.0650000000000002 Q 9.45619189453125 1.0650000000000002 9.39019189453125 1.0155000000000003 Q 9.32419189453125 0.9660000000000003 9.32419189453125 0.8355000000000002" fill="#57647a" fill-rule="nonzero"></path></g><g><path d=" M 0.07763671875 2.2385560546875003 Q 0.0791015625 2.2326966796875003 0.08056640625 2.2037660156250003 Q 0.08203125 2.1748353515625003 0.08203125 2.1308900390625003 L 0.08203125 1.9931947265625003 Q 0.08203125 1.9455873046875003 0.08056640625 1.9162904296875003 Q 0.0791015625 1.8869935546875003 0.07763671875 1.8825990234375003 L 0.032958984375 1.8752748046875003 L 0.034423828125 1.8467103515625003 L 0.208740234375 1.8467103515625003 Q 0.280517578125 1.8467103515625003 0.3175048828125 1.8734437500000003 Q 0.3544921875 1.9001771484375003 0.3544921875 1.9499818359375003 Q 0.3544921875 1.9902650390625003 0.322998046875 2.0180970703125003 Q 0.29150390625 2.0459291015625003 0.240966796875 2.0495912109375003 L 0.232177734375 2.0444642578125003 Q 0.3017578125 2.0466615234375003 0.339111328125 2.0748597656250003 Q 0.37646484375 2.1030580078125003 0.37646484375 2.1528626953125003 Q 0.37646484375 2.2099916015625003 0.327392578125 2.2433167968750003 Q 0.2783203125 2.2766419921875003 0.194091796875 2.2766419921875003 L 0.034423828125 2.2766419921875003 L 0.032958984375 2.2488099609375003 L 0.07763671875 2.2385560546875003 M 0.1435546875 2.1470033203125003 Q 0.1435546875 2.1792298828125003 0.144287109375 2.2052308593750003 Q 0.14501953125 2.2312318359375003 0.145751953125 2.2378236328125003 Q 0.1552734375 2.2392884765625003 0.17138671875 2.2411195312500003 Q 0.1875 2.2429505859375003 0.197021484375 2.2429505859375003 Q 0.25341796875 2.2429505859375003 0.2816162109375 2.2224427734375003 Q 0.309814453125 2.2019349609375003 0.309814453125 2.1601869140625003 Q 0.309814453125 2.1169740234375003 0.2801513671875 2.0953675781250003 Q 0.25048828125 2.0737611328125003 0.191162109375 2.0737611328125003 Q 0.163330078125 2.0737611328125003 0.1527099609375 2.0737611328125003 Q 0.14208984375 2.0737611328125003 0.134033203125 2.0752259765625003 L 0.134033203125 2.0371400390625003 Q 0.14794921875 2.0378724609375003 0.160400390625 2.0382386718750003 Q 0.1728515625 2.0386048828125003 0.1875 2.0386048828125003 Q 0.23583984375 2.0386048828125003 0.2618408203125 2.0173646484375003 Q 0.287841796875 1.9961244140625003 0.287841796875 1.9573060546875003 Q 0.287841796875 1.9192201171875003 0.263671875 1.8990785156250003 Q 0.239501953125 1.8789369140625003 0.194091796875 1.8789369140625003 L 0.14501953125 1.8789369140625003 Q 0.144287109375 1.8840638671875003 0.1439208984375 1.9118958984375003 Q 0.1435546875 1.9397279296875003 0.1435546875 1.9741517578125003 L 0.1435546875 2.1470033203125003 M 0.595458984375 2.2825013671875003 Q 0.552978515625 2.2825013671875003 0.5189208984375 2.2634583984375003 Q 0.48486328125 2.2444154296875003 0.4647216796875 2.2088929687500003 Q 0.444580078125 2.1733705078125003 0.444580078125 2.1250306640625003 Q 0.444580078125 2.0730287109375003 0.4658203125 2.0349427734375003 Q 0.487060546875 1.9968568359375003 0.521484375 1.9759828125000003 Q 0.555908203125 1.9551087890625003 0.595458984375 1.9558412109375003 Q 0.652587890625 1.9565736328125003 0.684814453125 1.9939271484375003 Q 0.717041015625 2.0312806640625003 0.717041015625 2.0993958984375003 L 0.717041015625 2.1125794921875003 L 0.4921875 2.1125794921875003 L 0.4921875 2.0803529296875003 L 0.668701171875 2.0803529296875003 L 0.66064453125 2.0898744140625003 L 0.66064453125 2.0744935546875003 Q 0.66064453125 2.0320130859375003 0.6416015625 2.0093080078125003 Q 0.62255859375 1.9866029296875003 0.589599609375 1.9866029296875003 Q 0.569091796875 1.9866029296875003 0.550048828125 1.9986878906250003 Q 0.531005859375 2.0107728515625003 0.519287109375 2.0353089843750003 Q 0.507568359375 2.0598451171875003 0.507568359375 2.0971986328125003 L 0.507568359375 2.1059876953125003 Q 0.507568359375 2.1660462890625003 0.5372314453125 2.1997376953125003 Q 0.56689453125 2.2334291015625003 0.61376953125 2.2334291015625003 Q 0.639404296875 2.2334291015625003 0.659912109375 2.2231751953125003 Q 0.680419921875 2.2129212890625003 0.699462890625 2.1902162109375003 L 0.7177734375 2.2070619140625003 Q 0.697265625 2.2451478515625003 0.665771484375 2.2638246093750003 Q 0.63427734375 2.2825013671875003 0.595458984375 2.2825013671875003 M 0.927978515625 2.2825013671875003 Q 0.886962890625 2.2825013671875003 0.8525390625 2.2638246093750003 Q 0.818115234375 2.2451478515625003 0.797607421875 2.2096253906250003 Q 0.777099609375 2.1741029296875003 0.777099609375 2.1250306640625003 Q 0.777099609375 2.0774232421875003 0.7987060546875 2.0389710937500003 Q 0.8203125 2.0005189453125003 0.8580322265625 1.9781800781250003 Q 0.895751953125 1.9558412109375003 0.942626953125 1.9558412109375003 Q 0.974853515625 1.9558412109375003 0.996826171875 1.9638978515625003 Q 1.018798828125 1.9719544921875003 1.0301513671875 1.9851380859375003 Q 1.04150390625 1.9983216796875003 1.04150390625 2.0129701171875003 Q 1.04150390625 2.0246888671875003 1.0341796875 2.0323792968750003 Q 1.02685546875 2.0400697265625003 1.013671875 2.0400697265625003 Q 1.001953125 2.0400697265625003 0.9931640625 2.0356751953125003 Q 0.984375 2.0312806640625003 0.971923828125 2.0180970703125003 L 0.9345703125 1.9807435546875003 L 0.9609375 1.9880677734375003 Q 0.931640625 1.9814759765625003 0.904541015625 1.9935609375000003 Q 0.87744140625 2.0056458984375003 0.85986328125 2.0353089843750003 Q 0.84228515625 2.0649720703125003 0.84228515625 2.1118470703125003 Q 0.84228515625 2.1704408203125003 0.8719482421875 2.2019349609375003 Q 0.901611328125 2.2334291015625003 0.9462890625 2.2334291015625003 Q 0.97412109375 2.2334291015625003 0.9942626953125 2.2231751953125003 Q 1.014404296875 2.2129212890625003 1.03271484375 2.1902162109375003 L 1.052490234375 2.2070619140625003 Q 1.031982421875 2.2451478515625003 1.00048828125 2.2638246093750003 Q 0.968994140625 2.2825013671875003 0.927978515625 2.2825013671875003 M 1.20556640625 2.2825013671875003 Q 1.17626953125 2.2825013671875003 1.153564453125 2.2707826171875003 Q 1.130859375 2.2590638671875003 1.1180419921875 2.2407533203125003 Q 1.105224609375 2.2224427734375003 1.105224609375 2.2026673828125003 Q 1.105224609375 2.1777650390625003 1.121337890625 2.1616517578125003 Q 1.137451171875 2.1455384765625003 1.174072265625 2.1338197265625003 L 1.285400390625 2.0964662109375003 L 1.285400390625 2.0591126953125003 Q 1.285400390625 2.0408021484375003 1.2744140625 2.0257875000000003 Q 1.263427734375 2.0107728515625003 1.2451171875 2.0019837890625003 Q 1.226806640625 1.9931947265625003 1.2041015625 1.9931947265625003 Q 1.185791015625 1.9931947265625003 1.17919921875 2.0008851562500003 Q 1.172607421875 2.0085755859375003 1.171142578125 2.0312806640625003 L 1.169677734375 2.0620423828125003 Q 1.143310546875 2.0679017578125003 1.125 2.0602113281250003 Q 1.106689453125 2.0525208984375003 1.106689453125 2.0349427734375003 Q 1.106689453125 2.0224916015625003 1.1173095703125 2.0100404296875003 Q 1.1279296875 1.9975892578125003 1.1455078125 1.9862367187500003 Q 1.1630859375 1.9748841796875003 1.18359375 1.9668275390625003 Q 1.2041015625 1.9587708984375003 1.223876953125 1.9558412109375003 Q 1.278076171875 1.9558412109375003 1.3106689453125 1.9844056640625003 Q 1.34326171875 2.0129701171875003 1.343994140625 2.0591126953125003 L 1.342529296875 2.1821595703125003 Q 1.342529296875 2.1960755859375003 1.3436279296875 2.2092591796875003 Q 1.3447265625 2.2224427734375003 1.346923828125 2.2290345703125003 L 1.393798828125 2.2378236328125003 L 1.393798828125 2.2605287109375003 L 1.35791015625 2.2737123046875003 Q 1.34765625 2.2773744140625003 1.3388671875 2.2799378906250003 Q 1.330078125 2.2825013671875003 1.32421875 2.2825013671875003 Q 1.301513671875 2.2825013671875003 1.294921875 2.2568666015625003 L 1.286865234375 2.2283021484375003 L 1.2978515625 2.2283021484375003 Q 1.273681640625 2.2554017578125003 1.2513427734375 2.2689515625000003 Q 1.22900390625 2.2825013671875003 1.20556640625 2.2825013671875003 M 1.225341796875 2.2392884765625003 Q 1.2421875 2.2392884765625003 1.2568359375 2.2315980468750003 Q 1.271484375 2.2239076171875003 1.285400390625 2.2077943359375003 L 1.285400390625 2.1308900390625003 L 1.203369140625 2.1528626953125003 Q 1.185791015625 2.1572572265625003 1.1781005859375 2.1667787109375003 Q 1.17041015625 2.1763001953125003 1.17041015625 2.1909486328125003 Q 1.17041015625 2.2092591796875003 1.1868896484375 2.2242738281250003 Q 1.203369140625 2.2392884765625003 1.225341796875 2.2392884765625003 M 1.74609375 2.2253724609375003 L 1.792236328125 2.2370912109375003 L 1.792236328125 2.2612611328125003 L 1.697021484375 2.2846986328125003 L 1.68603515625 2.2751771484375003 L 1.686767578125 2.2290345703125003 L 1.6845703125 2.2283021484375003 Q 1.663330078125 2.2583314453125003 1.6409912109375 2.2704164062500003 Q 1.61865234375 2.2825013671875003 1.593017578125 2.2825013671875003 Q 1.5439453125 2.2825013671875003 1.510986328125 2.2521058593750003 Q 1.47802734375 2.2217103515625003 1.47802734375 2.1609193359375003 L 1.47802734375 2.0979310546875003 Q 1.47802734375 2.0774232421875003 1.4769287109375 2.0580140625000003 Q 1.475830078125 2.0386048828125003 1.474365234375 2.0188294921875003 L 1.424560546875 2.0085755859375003 L 1.424560546875 1.9844056640625003 L 1.524169921875 1.9573060546875003 L 1.537353515625 1.9690248046875003 Q 1.535888671875 1.9917298828125003 1.53515625 2.0173646484375003 Q 1.534423828125 2.0429994140625003 1.534423828125 2.0708314453125003 L 1.53369140625 2.1513978515625003 Q 1.53369140625 2.1968080078125003 1.554931640625 2.2162171875000003 Q 1.576171875 2.2356263671875003 1.609130859375 2.2356263671875003 Q 1.62890625 2.2356263671875003 1.6494140625 2.2253724609375003 Q 1.669921875 2.2151185546875003 1.685302734375 2.1902162109375003 L 1.685302734375 2.1052552734375003 Q 1.685302734375 2.0891419921875003 1.6849365234375 2.0733949218750003 Q 1.6845703125 2.0576478515625003 1.683837890625 2.0433656250000003 Q 1.68310546875 2.0290833984375003 1.681640625 2.0188294921875003 L 1.628173828125 2.0085755859375003 L 1.628173828125 1.9844056640625003 L 1.7314453125 1.9573060546875003 L 1.742431640625 1.9675599609375003 Q 1.74169921875 1.9880677734375003 1.7413330078125 2.0041810546875003 Q 1.740966796875 2.0202943359375003 1.740966796875 2.0360414062500003 Q 1.740966796875 2.0517884765625003 1.740966796875 2.0715638671875003 L 1.740966796875 2.1235658203125003 Q 1.740966796875 2.1638490234375003 1.7427978515625 2.1883851562500003 Q 1.74462890625 2.2129212890625003 1.74609375 2.2253724609375003 M 1.957763671875 2.2825013671875003 Q 1.9306640625 2.2825013671875003 1.903564453125 2.2762757812500003 Q 1.87646484375 2.2700501953125003 1.857421875 2.2597962890625003 L 1.853759765625 2.1814271484375003 L 1.8896484375 2.1814271484375003 L 1.904296875 2.2341615234375003 Q 1.929931640625 2.2517396484375003 1.962890625 2.2517396484375003 Q 1.98779296875 2.2517396484375003 2.003173828125 2.2396546875000003 Q 2.0185546875 2.2275697265625003 2.0185546875 2.2070619140625003 Q 2.0185546875 2.1880189453125003 2.004638671875 2.1737367187500003 Q 1.99072265625 2.1594544921875003 1.950439453125 2.1426087890625003 Q 1.8984375 2.1199037109375003 1.877197265625 2.0990296875000003 Q 1.85595703125 2.0781556640625003 1.85595703125 2.0451966796875003 Q 1.85595703125 2.0188294921875003 1.8717041015625 1.9986878906250003 Q 1.887451171875 1.9785462890625003 1.915283203125 1.9671937500000003 Q 1.943115234375 1.9558412109375003 1.979736328125 1.9558412109375003 Q 2.000244140625 1.9558412109375003 2.021484375 1.9595033203125003 Q 2.042724609375 1.9631654296875003 2.056640625 1.9690248046875003 L 2.064697265625 2.0451966796875003 L 2.0302734375 2.0451966796875003 L 2.0126953125 1.9953919921875003 Q 2.00537109375 1.9909974609375003 1.9951171875 1.9884339843750003 Q 1.98486328125 1.9858705078125003 1.97314453125 1.9858705078125003 Q 1.947509765625 1.9858705078125003 1.93212890625 1.9979554687500003 Q 1.916748046875 2.0100404296875003 1.916748046875 2.0290833984375003 Q 1.916748046875 2.0510560546875003 1.93359375 2.0646058593750003 Q 1.950439453125 2.0781556640625003 1.992919921875 2.0979310546875003 Q 2.041259765625 2.1199037109375003 2.060302734375 2.1411439453125003 Q 2.079345703125 2.1623841796875003 2.079345703125 2.1924134765625003 Q 2.079345703125 2.2319642578125003 2.044921875 2.2572328125000003 Q 2.010498046875 2.2825013671875003 1.957763671875 2.2825013671875003 M 2.2939453125 2.2825013671875003 Q 2.25146484375 2.2825013671875003 2.2174072265625 2.2634583984375003 Q 2.183349609375 2.2444154296875003 2.1632080078125 2.2088929687500003 Q 2.14306640625 2.1733705078125003 2.14306640625 2.1250306640625003 Q 2.14306640625 2.0730287109375003 2.164306640625 2.0349427734375003 Q 2.185546875 1.9968568359375003 2.219970703125 1.9759828125000003 Q 2.25439453125 1.9551087890625003 2.2939453125 1.9558412109375003 Q 2.35107421875 1.9565736328125003 2.38330078125 1.9939271484375003 Q 2.41552734375 2.0312806640625003 2.41552734375 2.0993958984375003 L 2.41552734375 2.1125794921875003 L 2.190673828125 2.1125794921875003 L 2.190673828125 2.0803529296875003 L 2.3671875 2.0803529296875003 L 2.359130859375 2.0898744140625003 L 2.359130859375 2.0744935546875003 Q 2.359130859375 2.0320130859375003 2.340087890625 2.0093080078125003 Q 2.321044921875 1.9866029296875003 2.2880859375 1.9866029296875003 Q 2.267578125 1.9866029296875003 2.24853515625 1.9986878906250003 Q 2.2294921875 2.0107728515625003 2.2177734375 2.0353089843750003 Q 2.2060546875 2.0598451171875003 2.2060546875 2.0971986328125003 L 2.2060546875 2.1059876953125003 Q 2.2060546875 2.1660462890625003 2.2357177734375 2.1997376953125003 Q 2.265380859375 2.2334291015625003 2.312255859375 2.2334291015625003 Q 2.337890625 2.2334291015625003 2.3583984375 2.2231751953125003 Q 2.37890625 2.2129212890625003 2.39794921875 2.1902162109375003 L 2.416259765625 2.2070619140625003 Q 2.395751953125 2.2451478515625003 2.3642578125 2.2638246093750003 Q 2.332763671875 2.2825013671875003 2.2939453125 2.2825013671875003 M 2.958984375 2.2795716796875003 L 2.846923828125 1.9990541015625003 L 2.8095703125 1.9880677734375003 L 2.81103515625 1.9617005859375003 L 2.94580078125 1.9617005859375003 L 2.947265625 1.9880677734375003 L 2.9091796875 1.9990541015625003 L 2.994140625 2.2217103515625003 L 2.975830078125 2.2224427734375003 L 3.06298828125 1.9990541015625003 L 3.02490234375 1.9880677734375003 L 3.0263671875 1.9617005859375003 L 3.139892578125 1.9617005859375003 L 3.141357421875 1.9880677734375003 L 3.10693359375 1.9990541015625003 L 2.981689453125 2.2795716796875003 L 2.958984375 2.2795716796875003 M 2.745849609375 2.2795716796875003 L 2.627197265625 1.9990541015625003 L 2.5927734375 1.9880677734375003 L 2.59423828125 1.9617005859375003 L 2.729736328125 1.9617005859375003 L 2.731201171875 1.9880677734375003 L 2.69384765625 1.9990541015625003 L 2.78466796875 2.2217103515625003 L 2.7626953125 2.2224427734375003 L 2.859375 1.9924623046875003 L 2.879150390625 2.0378724609375003 L 2.7685546875 2.2795716796875003 L 2.745849609375 2.2795716796875003 M 3.320068359375 2.2825013671875003 Q 3.277587890625 2.2825013671875003 3.2435302734375 2.2634583984375003 Q 3.20947265625 2.2444154296875003 3.1893310546875 2.2088929687500003 Q 3.169189453125 2.1733705078125003 3.169189453125 2.1250306640625003 Q 3.169189453125 2.0730287109375003 3.1904296875 2.0349427734375003 Q 3.211669921875 1.9968568359375003 3.24609375 1.9759828125000003 Q 3.280517578125 1.9551087890625003 3.320068359375 1.9558412109375003 Q 3.377197265625 1.9565736328125003 3.409423828125 1.9939271484375003 Q 3.441650390625 2.0312806640625003 3.441650390625 2.0993958984375003 L 3.441650390625 2.1125794921875003 L 3.216796875 2.1125794921875003 L 3.216796875 2.0803529296875003 L 3.393310546875 2.0803529296875003 L 3.38525390625 2.0898744140625003 L 3.38525390625 2.0744935546875003 Q 3.38525390625 2.0320130859375003 3.3662109375 2.0093080078125003 Q 3.34716796875 1.9866029296875003 3.314208984375 1.9866029296875003 Q 3.293701171875 1.9866029296875003 3.274658203125 1.9986878906250003 Q 3.255615234375 2.0107728515625003 3.243896484375 2.0353089843750003 Q 3.232177734375 2.0598451171875003 3.232177734375 2.0971986328125003 L 3.232177734375 2.1059876953125003 Q 3.232177734375 2.1660462890625003 3.2618408203125 2.1997376953125003 Q 3.29150390625 2.2334291015625003 3.33837890625 2.2334291015625003 Q 3.364013671875 2.2334291015625003 3.384521484375 2.2231751953125003 Q 3.405029296875 2.2129212890625003 3.424072265625 2.1902162109375003 L 3.4423828125 2.2070619140625003 Q 3.421875 2.2451478515625003 3.390380859375 2.2638246093750003 Q 3.35888671875 2.2825013671875003 3.320068359375 2.2825013671875003 M 3.759521484375 2.2825013671875003 Q 3.730224609375 2.2825013671875003 3.70751953125 2.2707826171875003 Q 3.684814453125 2.2590638671875003 3.6719970703125 2.2407533203125003 Q 3.6591796875 2.2224427734375003 3.6591796875 2.2026673828125003 Q 3.6591796875 2.1777650390625003 3.67529296875 2.1616517578125003 Q 3.69140625 2.1455384765625003 3.72802734375 2.1338197265625003 L 3.83935546875 2.0964662109375003 L 3.83935546875 2.0591126953125003 Q 3.83935546875 2.0408021484375003 3.828369140625 2.0257875000000003 Q 3.8173828125 2.0107728515625003 3.799072265625 2.0019837890625003 Q 3.78076171875 1.9931947265625003 3.758056640625 1.9931947265625003 Q 3.73974609375 1.9931947265625003 3.733154296875 2.0008851562500003 Q 3.7265625 2.0085755859375003 3.72509765625 2.0312806640625003 L 3.7236328125 2.0620423828125003 Q 3.697265625 2.0679017578125003 3.678955078125 2.0602113281250003 Q 3.66064453125 2.0525208984375003 3.66064453125 2.0349427734375003 Q 3.66064453125 2.0224916015625003 3.6712646484375 2.0100404296875003 Q 3.681884765625 1.9975892578125003 3.699462890625 1.9862367187500003 Q 3.717041015625 1.9748841796875003 3.737548828125 1.9668275390625003 Q 3.758056640625 1.9587708984375003 3.77783203125 1.9558412109375003 Q 3.83203125 1.9558412109375003 3.8646240234375 1.9844056640625003 Q 3.897216796875 2.0129701171875003 3.89794921875 2.0591126953125003 L 3.896484375 2.1821595703125003 Q 3.896484375 2.1960755859375003 3.8975830078125 2.2092591796875003 Q 3.898681640625 2.2224427734375003 3.90087890625 2.2290345703125003 L 3.94775390625 2.2378236328125003 L 3.94775390625 2.2605287109375003 L 3.911865234375 2.2737123046875003 Q 3.901611328125 2.2773744140625003 3.892822265625 2.2799378906250003 Q 3.884033203125 2.2825013671875003 3.878173828125 2.2825013671875003 Q 3.85546875 2.2825013671875003 3.848876953125 2.2568666015625003 L 3.8408203125 2.2283021484375003 L 3.851806640625 2.2283021484375003 Q 3.82763671875 2.2554017578125003 3.8052978515625 2.2689515625000003 Q 3.782958984375 2.2825013671875003 3.759521484375 2.2825013671875003 M 3.779296875 2.2392884765625003 Q 3.796142578125 2.2392884765625003 3.810791015625 2.2315980468750003 Q 3.825439453125 2.2239076171875003 3.83935546875 2.2077943359375003 L 3.83935546875 2.1308900390625003 L 3.75732421875 2.1528626953125003 Q 3.73974609375 2.1572572265625003 3.7320556640625 2.1667787109375003 Q 3.724365234375 2.1763001953125003 3.724365234375 2.1909486328125003 Q 3.724365234375 2.2092591796875003 3.7408447265625 2.2242738281250003 Q 3.75732421875 2.2392884765625003 3.779296875 2.2392884765625003 M 3.9873046875 2.2766419921875003 L 3.98583984375 2.2495423828125003 L 4.033447265625 2.2392884765625003 Q 4.034912109375 2.2319642578125003 4.03564453125 2.2151185546875003 Q 4.036376953125 2.1982728515625003 4.0367431640625 2.1704408203125003 Q 4.037109375 2.1426087890625003 4.037109375 2.1023255859375003 L 4.037109375 2.0107728515625003 Q 4.037109375 1.9829408203125003 4.0367431640625 1.9536439453125003 Q 4.036376953125 1.9243470703125003 4.0360107421875 1.8983460937500003 Q 4.03564453125 1.8723451171875003 4.0352783203125 1.8536683593750003 Q 4.034912109375 1.8349916015625003 4.0341796875 1.8291322265625003 L 3.97998046875 1.8218080078125003 L 3.978515625 1.7983705078125003 L 4.083251953125 1.7683412109375003 L 4.09716796875 1.7785951171875003 Q 4.096435546875 1.8093568359375003 4.095703125 1.8401185546875003 Q 4.094970703125 1.8708802734375003 4.0946044921875 1.9082337890625003 Q 4.09423828125 1.9455873046875003 4.09423828125 1.9983216796875003 L 4.093505859375 2.1162416015625003 Q 4.093505859375 2.1594544921875003 4.0946044921875 2.1942445312500003 Q 4.095703125 2.2290345703125003 4.09716796875 2.2392884765625003 L 4.144775390625 2.2495423828125003 L 4.143310546875 2.2766419921875003 L 3.9873046875 2.2766419921875003 M 4.18798828125 2.2766419921875003 L 4.1865234375 2.2495423828125003 L 4.234130859375 2.2392884765625003 Q 4.235595703125 2.2319642578125003 4.236328125 2.2151185546875003 Q 4.237060546875 2.1982728515625003 4.2374267578125 2.1704408203125003 Q 4.23779296875 2.1426087890625003 4.23779296875 2.1023255859375003 L 4.23779296875 2.0107728515625003 Q 4.23779296875 1.9829408203125003 4.2374267578125 1.9536439453125003 Q 4.237060546875 1.9243470703125003 4.2366943359375 1.8983460937500003 Q 4.236328125 1.8723451171875003 4.2359619140625 1.8536683593750003 Q 4.235595703125 1.8349916015625003 4.23486328125 1.8291322265625003 L 4.1806640625 1.8218080078125003 L 4.17919921875 1.7983705078125003 L 4.283935546875 1.7683412109375003 L 4.2978515625 1.7785951171875003 Q 4.297119140625 1.8093568359375003 4.29638671875 1.8401185546875003 Q 4.295654296875 1.8708802734375003 4.2952880859375 1.9082337890625003 Q 4.294921875 1.9455873046875003 4.294921875 1.9983216796875003 L 4.294189453125 2.1162416015625003 Q 4.294189453125 2.1594544921875003 4.2952880859375 2.1942445312500003 Q 4.29638671875 2.2290345703125003 4.2978515625 2.2392884765625003 L 4.345458984375 2.2495423828125003 L 4.343994140625 2.2766419921875003 L 4.18798828125 2.2766419921875003 M 4.532958984375 2.2766419921875003 L 4.531494140625 2.2495423828125003 L 4.5791015625 2.2392884765625003 Q 4.58056640625 2.2319642578125003 4.581298828125 2.2151185546875003 Q 4.58203125 2.1982728515625003 4.5823974609375 2.1704408203125003 Q 4.582763671875 2.1426087890625003 4.582763671875 2.1023255859375003 L 4.582763671875 2.0107728515625003 Q 4.582763671875 1.9829408203125003 4.5823974609375 1.9536439453125003 Q 4.58203125 1.9243470703125003 4.5816650390625 1.8983460937500003 Q 4.581298828125 1.8723451171875003 4.5809326171875 1.8536683593750003 Q 4.58056640625 1.8349916015625003 4.579833984375 1.8291322265625003 L 4.525634765625 1.8218080078125003 L 4.524169921875 1.7983705078125003 L 4.62890625 1.7683412109375003 L 4.642822265625 1.7785951171875003 Q 4.64208984375 1.8093568359375003 4.641357421875 1.8401185546875003 Q 4.640625 1.8708802734375003 4.6402587890625 1.9082337890625003 Q 4.639892578125 1.9455873046875003 4.639892578125 1.9983216796875003 L 4.63916015625 2.1162416015625003 Q 4.63916015625 2.1594544921875003 4.6402587890625 2.1942445312500003 Q 4.641357421875 2.2290345703125003 4.642822265625 2.2392884765625003 L 4.6904296875 2.2495423828125003 L 4.68896484375 2.2766419921875003 L 4.532958984375 2.2766419921875003 M 4.9013671875 2.2825013671875003 Q 4.853759765625 2.2825013671875003 4.8182373046875 2.2619935546875003 Q 4.78271484375 2.2414857421875003 4.762939453125 2.2044984375000003 Q 4.7431640625 2.1675111328125003 4.7431640625 2.1199037109375003 Q 4.7431640625 2.0700990234375003 4.76513671875 2.0334779296875003 Q 4.787109375 1.9968568359375003 4.82373046875 1.9763490234375003 Q 4.8603515625 1.9558412109375003 4.904296875 1.9558412109375003 Q 4.94970703125 1.9558412109375003 4.9837646484375 1.9759828125000003 Q 5.017822265625 1.9961244140625003 5.0364990234375 2.0323792968750003 Q 5.05517578125 2.0686341796875003 5.05517578125 2.1169740234375003 Q 5.05517578125 2.1631166015625003 5.03466796875 2.2004701171875003 Q 5.01416015625 2.2378236328125003 4.9793701171875 2.2601625000000003 Q 4.944580078125 2.2825013671875003 4.9013671875 2.2825013671875003 M 4.90869140625 2.2480775390625003 Q 4.93359375 2.2480775390625003 4.951904296875 2.2330628906250003 Q 4.97021484375 2.2180482421875003 4.98046875 2.1913148437500003 Q 4.99072265625 2.1645814453125003 4.99072265625 2.1301576171875003 Q 4.99072265625 2.0671693359375003 4.9647216796875 2.0279847656250003 Q 4.938720703125 1.9888001953125003 4.896240234375 1.9888001953125003 Q 4.856689453125 1.9888001953125003 4.8328857421875 2.0217591796875003 Q 4.80908203125 2.0547181640625003 4.80908203125 2.1089173828125003 Q 4.80908203125 2.1499330078125003 4.8218994140625 2.1814271484375003 Q 4.834716796875 2.2129212890625003 4.857421875 2.2304994140625003 Q 4.880126953125 2.2480775390625003 4.90869140625 2.2480775390625003 M 5.24853515625 2.2795716796875003 L 5.118896484375 1.9990541015625003 L 5.08447265625 1.9880677734375003 L 5.0859375 1.9617005859375003 L 5.228759765625 1.9617005859375003 L 5.230224609375 1.9880677734375003 L 5.184814453125 1.9990541015625003 L 5.28515625 2.2217103515625003 L 5.26611328125 2.2224427734375003 L 5.3583984375 1.9990541015625003 L 5.31298828125 1.9880677734375003 L 5.314453125 1.9617005859375003 L 5.43603515625 1.9617005859375003 L 5.4375 1.9880677734375003 L 5.403076171875 1.9990541015625003 L 5.2705078125 2.2795716796875003 L 5.24853515625 2.2795716796875003 M 5.61181640625 2.2825013671875003 Q 5.5693359375 2.2825013671875003 5.5352783203125 2.2634583984375003 Q 5.501220703125 2.2444154296875003 5.4810791015625 2.2088929687500003 Q 5.4609375 2.1733705078125003 5.4609375 2.1250306640625003 Q 5.4609375 2.0730287109375003 5.482177734375 2.0349427734375003 Q 5.50341796875 1.9968568359375003 5.537841796875 1.9759828125000003 Q 5.572265625 1.9551087890625003 5.61181640625 1.9558412109375003 Q 5.6689453125 1.9565736328125003 5.701171875 1.9939271484375003 Q 5.7333984375 2.0312806640625003 5.7333984375 2.0993958984375003 L 5.7333984375 2.1125794921875003 L 5.508544921875 2.1125794921875003 L 5.508544921875 2.0803529296875003 L 5.68505859375 2.0803529296875003 L 5.677001953125 2.0898744140625003 L 5.677001953125 2.0744935546875003 Q 5.677001953125 2.0320130859375003 5.657958984375 2.0093080078125003 Q 5.638916015625 1.9866029296875003 5.60595703125 1.9866029296875003 Q 5.58544921875 1.9866029296875003 5.56640625 1.9986878906250003 Q 5.54736328125 2.0107728515625003 5.53564453125 2.0353089843750003 Q 5.52392578125 2.0598451171875003 5.52392578125 2.0971986328125003 L 5.52392578125 2.1059876953125003 Q 5.52392578125 2.1660462890625003 5.5535888671875 2.1997376953125003 Q 5.583251953125 2.2334291015625003 5.630126953125 2.2334291015625003 Q 5.65576171875 2.2334291015625003 5.67626953125 2.2231751953125003 Q 5.69677734375 2.2129212890625003 5.7158203125 2.1902162109375003 L 5.734130859375 2.2070619140625003 Q 5.713623046875 2.2451478515625003 5.68212890625 2.2638246093750003 Q 5.650634765625 2.2825013671875003 5.61181640625 2.2825013671875003 M 6.05126953125 2.2825013671875003 Q 6.02197265625 2.2825013671875003 5.999267578125 2.2707826171875003 Q 5.9765625 2.2590638671875003 5.9637451171875 2.2407533203125003 Q 5.950927734375 2.2224427734375003 5.950927734375 2.2026673828125003 Q 5.950927734375 2.1777650390625003 5.967041015625 2.1616517578125003 Q 5.983154296875 2.1455384765625003 6.019775390625 2.1338197265625003 L 6.131103515625 2.0964662109375003 L 6.131103515625 2.0591126953125003 Q 6.131103515625 2.0408021484375003 6.1201171875 2.0257875000000003 Q 6.109130859375 2.0107728515625003 6.0908203125 2.0019837890625003 Q 6.072509765625 1.9931947265625003 6.0498046875 1.9931947265625003 Q 6.031494140625 1.9931947265625003 6.02490234375 2.0008851562500003 Q 6.018310546875 2.0085755859375003 6.016845703125 2.0312806640625003 L 6.015380859375 2.0620423828125003 Q 5.989013671875 2.0679017578125003 5.970703125 2.0602113281250003 Q 5.952392578125 2.0525208984375003 5.952392578125 2.0349427734375003 Q 5.952392578125 2.0224916015625003 5.9630126953125 2.0100404296875003 Q 5.9736328125 1.9975892578125003 5.9912109375 1.9862367187500003 Q 6.0087890625 1.9748841796875003 6.029296875 1.9668275390625003 Q 6.0498046875 1.9587708984375003 6.069580078125 1.9558412109375003 Q 6.123779296875 1.9558412109375003 6.1563720703125 1.9844056640625003 Q 6.18896484375 2.0129701171875003 6.189697265625 2.0591126953125003 L 6.188232421875 2.1821595703125003 Q 6.188232421875 2.1960755859375003 6.1893310546875 2.2092591796875003 Q 6.1904296875 2.2224427734375003 6.192626953125 2.2290345703125003 L 6.239501953125 2.2378236328125003 L 6.239501953125 2.2605287109375003 L 6.20361328125 2.2737123046875003 Q 6.193359375 2.2773744140625003 6.1845703125 2.2799378906250003 Q 6.17578125 2.2825013671875003 6.169921875 2.2825013671875003 Q 6.147216796875 2.2825013671875003 6.140625 2.2568666015625003 L 6.132568359375 2.2283021484375003 L 6.1435546875 2.2283021484375003 Q 6.119384765625 2.2554017578125003 6.0970458984375 2.2689515625000003 Q 6.07470703125 2.2825013671875003 6.05126953125 2.2825013671875003 M 6.071044921875 2.2392884765625003 Q 6.087890625 2.2392884765625003 6.1025390625 2.2315980468750003 Q 6.1171875 2.2239076171875003 6.131103515625 2.2077943359375003 L 6.131103515625 2.1308900390625003 L 6.049072265625 2.1528626953125003 Q 6.031494140625 2.1572572265625003 6.0238037109375 2.1667787109375003 Q 6.01611328125 2.1763001953125003 6.01611328125 2.1909486328125003 Q 6.01611328125 2.2092591796875003 6.0325927734375 2.2242738281250003 Q 6.049072265625 2.2392884765625003 6.071044921875 2.2392884765625003 M 6.438720703125 1.8467103515625003 L 6.615966796875 1.8467103515625003 Q 6.731689453125 1.8467103515625003 6.7965087890625 1.9020082031250003 Q 6.861328125 1.9573060546875003 6.861328125 2.0569154296875003 Q 6.861328125 2.1213685546875003 6.831298828125 2.1708070312500003 Q 6.80126953125 2.2202455078125003 6.747802734375 2.2484437500000003 Q 6.6943359375 2.2766419921875003 6.624755859375 2.2766419921875003 L 6.438720703125 2.2766419921875003 L 6.437255859375 2.2488099609375003 L 6.48193359375 2.2385560546875003 Q 6.4833984375 2.2319642578125003 6.4844970703125 2.2012025390625003 Q 6.485595703125 2.1704408203125003 6.485595703125 2.1308900390625003 L 6.485595703125 1.9931947265625003 Q 6.485595703125 1.9499818359375003 6.4844970703125 1.9199525390625003 Q 6.4833984375 1.8899232421875003 6.48193359375 1.8847962890625003 L 6.437255859375 1.8745423828125003 L 6.438720703125 1.8467103515625003 M 6.54931640625 1.8862611328125003 Q 6.54931640625 1.8928529296875003 6.5489501953125 1.9042054687500003 Q 6.548583984375 1.9155580078125003 6.5482177734375 1.9364320312500003 Q 6.5478515625 1.9573060546875003 6.5478515625 1.9931947265625003 L 6.5478515625 2.1308900390625003 Q 6.5478515625 2.1528626953125003 6.5482177734375 2.1722718750000003 Q 6.548583984375 2.1916810546875003 6.5496826171875 2.2070619140625003 Q 6.55078125 2.2224427734375003 6.551513671875 2.2326966796875003 Q 6.574951171875 2.2356263671875003 6.5936279296875 2.2374574218750003 Q 6.6123046875 2.2392884765625003 6.6298828125 2.2392884765625003 Q 6.70751953125 2.2392884765625003 6.747802734375 2.1979066406250003 Q 6.7880859375 2.1565248046875003 6.7880859375 2.0781556640625003 Q 6.7880859375 2.0305482421875003 6.7763671875 1.9935609375000003 Q 6.7646484375 1.9565736328125003 6.7415771484375 1.9316712890625003 Q 6.718505859375 1.9067689453125003 6.6851806640625 1.8939515625000003 Q 6.65185546875 1.8811341796875003 6.60791015625 1.8811341796875003 Q 6.5947265625 1.8811341796875003 6.580078125 1.8822328125000003 Q 6.5654296875 1.8833314453125003 6.54931640625 1.8862611328125003 M 7.2392578125 2.2253724609375003 L 7.285400390625 2.2370912109375003 L 7.285400390625 2.2612611328125003 L 7.190185546875 2.2846986328125003 L 7.17919921875 2.2751771484375003 L 7.179931640625 2.2290345703125003 L 7.177734375 2.2283021484375003 Q 7.156494140625 2.2583314453125003 7.1341552734375 2.2704164062500003 Q 7.11181640625 2.2825013671875003 7.086181640625 2.2825013671875003 Q 7.037109375 2.2825013671875003 7.004150390625 2.2521058593750003 Q 6.97119140625 2.2217103515625003 6.97119140625 2.1609193359375003 L 6.97119140625 2.0979310546875003 Q 6.97119140625 2.0774232421875003 6.9700927734375 2.0580140625000003 Q 6.968994140625 2.0386048828125003 6.967529296875 2.0188294921875003 L 6.917724609375 2.0085755859375003 L 6.917724609375 1.9844056640625003 L 7.017333984375 1.9573060546875003 L 7.030517578125 1.9690248046875003 Q 7.029052734375 1.9917298828125003 7.0283203125 2.0173646484375003 Q 7.027587890625 2.0429994140625003 7.027587890625 2.0708314453125003 L 7.02685546875 2.1513978515625003 Q 7.02685546875 2.1968080078125003 7.048095703125 2.2162171875000003 Q 7.0693359375 2.2356263671875003 7.102294921875 2.2356263671875003 Q 7.1220703125 2.2356263671875003 7.142578125 2.2253724609375003 Q 7.1630859375 2.2151185546875003 7.178466796875 2.1902162109375003 L 7.178466796875 2.1052552734375003 Q 7.178466796875 2.0891419921875003 7.1781005859375 2.0733949218750003 Q 7.177734375 2.0576478515625003 7.177001953125 2.0433656250000003 Q 7.17626953125 2.0290833984375003 7.1748046875 2.0188294921875003 L 7.121337890625 2.0085755859375003 L 7.121337890625 1.9844056640625003 L 7.224609375 1.9573060546875003 L 7.235595703125 1.9675599609375003 Q 7.23486328125 1.9880677734375003 7.2344970703125 2.0041810546875003 Q 7.234130859375 2.0202943359375003 7.234130859375 2.0360414062500003 Q 7.234130859375 2.0517884765625003 7.234130859375 2.0715638671875003 L 7.234130859375 2.1235658203125003 Q 7.234130859375 2.1638490234375003 7.2359619140625 2.1883851562500003 Q 7.23779296875 2.2129212890625003 7.2392578125 2.2253724609375003 M 7.48828125 2.2825013671875003 Q 7.447265625 2.2825013671875003 7.412841796875 2.2638246093750003 Q 7.37841796875 2.2451478515625003 7.35791015625 2.2096253906250003 Q 7.33740234375 2.1741029296875003 7.33740234375 2.1250306640625003 Q 7.33740234375 2.0774232421875003 7.3590087890625 2.0389710937500003 Q 7.380615234375 2.0005189453125003 7.4183349609375 1.9781800781250003 Q 7.4560546875 1.9558412109375003 7.5029296875 1.9558412109375003 Q 7.53515625 1.9558412109375003 7.55712890625 1.9638978515625003 Q 7.5791015625 1.9719544921875003 7.5904541015625 1.9851380859375003 Q 7.601806640625 1.9983216796875003 7.601806640625 2.0129701171875003 Q 7.601806640625 2.0246888671875003 7.594482421875 2.0323792968750003 Q 7.587158203125 2.0400697265625003 7.573974609375 2.0400697265625003 Q 7.562255859375 2.0400697265625003 7.553466796875 2.0356751953125003 Q 7.544677734375 2.0312806640625003 7.5322265625 2.0180970703125003 L 7.494873046875 1.9807435546875003 L 7.521240234375 1.9880677734375003 Q 7.491943359375 1.9814759765625003 7.46484375 1.9935609375000003 Q 7.437744140625 2.0056458984375003 7.420166015625 2.0353089843750003 Q 7.402587890625 2.0649720703125003 7.402587890625 2.1118470703125003 Q 7.402587890625 2.1704408203125003 7.4322509765625 2.2019349609375003 Q 7.4619140625 2.2334291015625003 7.506591796875 2.2334291015625003 Q 7.534423828125 2.2334291015625003 7.5545654296875 2.2231751953125003 Q 7.57470703125 2.2129212890625003 7.593017578125 2.1902162109375003 L 7.61279296875 2.2070619140625003 Q 7.59228515625 2.2451478515625003 7.560791015625 2.2638246093750003 Q 7.529296875 2.2825013671875003 7.48828125 2.2825013671875003 M 7.64501953125 2.2766419921875003 L 7.6435546875 2.2502748046875003 L 7.685302734375 2.2392884765625003 Q 7.68603515625 2.2319642578125003 7.686767578125 2.2154847656250003 Q 7.6875 2.1990052734375003 7.688232421875 2.1737367187500003 Q 7.68896484375 2.1484681640625003 7.68896484375 2.1169740234375003 L 7.68896484375 2.0107728515625003 Q 7.68896484375 1.9829408203125003 7.6885986328125 1.9540101562500003 Q 7.688232421875 1.9250794921875003 7.6878662109375 1.8987123046875003 Q 7.6875 1.8723451171875003 7.686767578125 1.8540345703125003 Q 7.68603515625 1.8357240234375003 7.68603515625 1.8291322265625003 L 7.6318359375 1.8218080078125003 L 7.63037109375 1.7983705078125003 L 7.733642578125 1.7683412109375003 L 7.748291015625 1.7785951171875003 Q 7.74755859375 1.8034974609375003 7.746826171875 1.8273011718750003 Q 7.74609375 1.8511048828125003 7.745361328125 1.8763734375000003 Q 7.74462890625 1.9016419921875003 7.74462890625 1.9298402343750003 Q 7.74462890625 1.9580384765625003 7.74462890625 1.9909974609375003 L 7.743896484375 2.1704408203125003 Q 7.743896484375 2.1894837890625003 7.74462890625 2.2037660156250003 Q 7.745361328125 2.2180482421875003 7.74609375 2.2268373046875003 Q 7.746826171875 2.2356263671875003 7.746826171875 2.2392884765625003 L 7.792236328125 2.2502748046875003 L 7.790771484375 2.2766419921875003 L 7.64501953125 2.2766419921875003 M 7.97314453125 2.2766419921875003 L 7.8896484375 2.2766419921875003 Q 7.87646484375 2.2590638671875003 7.869140625 2.2502748046875003 Q 7.86181640625 2.2414857421875003 7.853759765625 2.2334291015625003 L 7.75341796875 2.1242982421875003 L 7.73291015625 2.1242982421875003 L 7.733642578125 2.1067201171875003 L 7.761474609375 2.0986634765625003 L 7.86328125 1.9975892578125003 L 7.81494140625 1.9888001953125003 L 7.81640625 1.9617005859375003 L 7.963623046875 1.9617005859375003 L 7.965087890625 1.9888001953125003 L 7.916748046875 1.9975892578125003 L 7.78564453125 2.1155091796875003 L 7.796630859375 2.0891419921875003 L 7.89990234375 2.2004701171875003 Q 7.909423828125 2.2099916015625003 7.9215087890625 2.2224427734375003 Q 7.93359375 2.2348939453125003 7.9423828125 2.2429505859375003 L 7.975341796875 2.2495423828125003 L 7.97314453125 2.2766419921875003 M 8.000244140625 2.2766419921875003 L 7.998779296875 2.2495423828125003 L 8.0478515625 2.2392884765625003 Q 8.048583984375 2.2363587890625003 8.0489501953125 2.2290345703125003 Q 8.04931640625 2.2217103515625003 8.050048828125 2.2055970703125003 Q 8.05078125 2.1894837890625003 8.05078125 2.1609193359375003 L 8.05078125 2.1125794921875003 Q 8.05078125 2.0825501953125003 8.04931640625 2.0576478515625003 Q 8.0478515625 2.0327455078125003 8.045654296875 2.0188294921875003 L 7.99658203125 2.0085755859375003 L 7.99658203125 1.9844056640625003 L 8.1005859375 1.9573060546875003 L 8.111572265625 1.9675599609375003 Q 8.109375 1.9902650390625003 8.1082763671875 2.0122376953125003 Q 8.107177734375 2.0342103515625003 8.107177734375 2.0635072265625003 L 8.107177734375 2.1557923828125003 Q 8.107177734375 2.1894837890625003 8.1082763671875 2.2114564453125003 Q 8.109375 2.2334291015625003 8.11083984375 2.2392884765625003 L 8.159912109375 2.2495423828125003 L 8.158447265625 2.2766419921875003 L 8.000244140625 2.2766419921875003 M 8.079345703125 1.8745423828125003 Q 8.06103515625 1.8745423828125003 8.0474853515625 1.8620912109375003 Q 8.033935546875 1.8496400390625003 8.033935546875 1.8313294921875003 Q 8.033935546875 1.8130189453125003 8.0474853515625 1.8005677734375003 Q 8.06103515625 1.7881166015625003 8.079345703125 1.7881166015625003 Q 8.098388671875 1.7881166015625003 8.11083984375 1.8005677734375003 Q 8.123291015625 1.8130189453125003 8.123291015625 1.8313294921875003 Q 8.123291015625 1.8496400390625003 8.11083984375 1.8620912109375003 Q 8.098388671875 1.8745423828125003 8.079345703125 1.8745423828125003 M 8.203125 2.2766419921875003 L 8.20166015625 2.2502748046875003 L 8.2470703125 2.2392884765625003 Q 8.247802734375 2.2341615234375003 8.2481689453125 2.2253724609375003 Q 8.24853515625 2.2165833984375003 8.249267578125 2.2012025390625003 Q 8.25 2.1858216796875003 8.25 2.1609193359375003 L 8.250732421875 2.1045228515625003 Q 8.250732421875 2.0803529296875003 8.2489013671875 2.0565492187500003 Q 8.2470703125 2.0327455078125003 8.244873046875 2.0188294921875003 L 8.197998046875 2.0085755859375003 L 8.197998046875 1.9844056640625003 L 8.296142578125 1.9573060546875003 L 8.30859375 1.9690248046875003 L 8.304931640625 2.0078431640625003 L 8.30712890625 2.0085755859375003 Q 8.332763671875 1.9807435546875003 8.357666015625 1.9682923828125003 Q 8.382568359375 1.9558412109375003 8.411865234375 1.9558412109375003 Q 8.43896484375 1.9558412109375003 8.4627685546875 1.9693910156250003 Q 8.486572265625 1.9829408203125003 8.5015869140625 2.0107728515625003 Q 8.5166015625 2.0386048828125003 8.5166015625 2.0818177734375003 L 8.5166015625 2.1631166015625003 Q 8.5166015625 2.1894837890625003 8.5177001953125 2.2107240234375003 Q 8.518798828125 2.2319642578125003 8.52099609375 2.2392884765625003 L 8.56640625 2.2502748046875003 L 8.564208984375 2.2766419921875003 L 8.4169921875 2.2766419921875003 L 8.41552734375 2.2502748046875003 L 8.4580078125 2.2392884765625003 Q 8.458740234375 2.2334291015625003 8.45947265625 2.2246400390625003 Q 8.460205078125 2.2158509765625003 8.4605712890625 2.2023011718750003 Q 8.4609375 2.1887513671875003 8.4609375 2.1682435546875003 L 8.4609375 2.0891419921875003 Q 8.4609375 2.0561830078125003 8.4495849609375 2.0367738281250003 Q 8.438232421875 2.0173646484375003 8.42138671875 2.0089417968750003 Q 8.404541015625 2.0005189453125003 8.386962890625 2.0005189453125003 Q 8.36279296875 2.0005189453125003 8.3419189453125 2.0126039062500003 Q 8.321044921875 2.0246888671875003 8.306396484375 2.0459291015625003 L 8.306396484375 2.1557923828125003 Q 8.306396484375 2.1894837890625003 8.3074951171875 2.2103578125000003 Q 8.30859375 2.2312318359375003 8.31005859375 2.2392884765625003 L 8.35546875 2.2502748046875003 L 8.353271484375 2.2766419921875003 L 8.203125 2.2766419921875003 M 8.672607421875 1.7654115234375003 Q 8.69091796875 1.7654115234375003 8.7030029296875 1.7785951171875003 Q 8.715087890625 1.7917787109375003 8.715087890625 1.8203431640625003 Q 8.715087890625 1.8313294921875003 8.7117919921875 1.8492738281250003 Q 8.70849609375 1.8672181640625003 8.7037353515625 1.8873597656250003 Q 8.698974609375 1.9075013671875003 8.69384765625 1.9269105468750003 Q 8.688720703125 1.9463197265625003 8.68505859375 1.9617005859375003 L 8.66015625 1.9617005859375003 Q 8.656494140625 1.9463197265625003 8.6513671875 1.9269105468750003 Q 8.646240234375 1.9075013671875003 8.6414794921875 1.8873597656250003 Q 8.63671875 1.8672181640625003 8.6334228515625 1.8492738281250003 Q 8.630126953125 1.8313294921875003 8.630126953125 1.8203431640625003 Q 8.630126953125 1.7917787109375003 8.6422119140625 1.7785951171875003 Q 8.654296875 1.7654115234375003 8.672607421875 1.7654115234375003 M 8.930419921875 2.2766419921875003 L 8.92822265625 2.2502748046875003 L 8.9736328125 2.2392884765625003 Q 8.974365234375 2.2356263671875003 8.97509765625 2.2261048828125003 Q 8.975830078125 2.2165833984375003 8.9761962890625 2.2004701171875003 Q 8.9765625 2.1843568359375003 8.9765625 2.1609193359375003 L 8.977294921875 2.1037904296875003 Q 8.977294921875 2.0796205078125003 8.9754638671875 2.0561830078125003 Q 8.9736328125 2.0327455078125003 8.971435546875 2.0188294921875003 L 8.924560546875 2.0085755859375003 L 8.924560546875 1.9844056640625003 L 9.022705078125 1.9573060546875003 L 9.032958984375 1.9675599609375003 L 9.030029296875 2.0290833984375003 L 9.0322265625 2.0298158203125003 Q 9.05419921875 1.9873353515625003 9.076904296875 1.9723207031250003 Q 9.099609375 1.9573060546875003 9.119384765625 1.9573060546875003 Q 9.13623046875 1.9573060546875003 9.1475830078125 1.9657289062500003 Q 9.158935546875 1.9741517578125003 9.158935546875 1.9909974609375003 Q 9.158935546875 2.0085755859375003 9.1468505859375 2.0177308593750003 Q 9.134765625 2.0268861328125003 9.116455078125 2.0268861328125003 Q 9.103271484375 2.0268861328125003 9.0911865234375 2.0210267578125003 Q 9.0791015625 2.0151673828125003 9.068115234375 2.0049134765625003 L 9.081298828125 2.0093080078125003 Q 9.0673828125 2.0180970703125003 9.054931640625 2.0338441406250003 Q 9.04248046875 2.0495912109375003 9.0322265625 2.0730287109375003 L 9.032958984375 2.1411439453125003 Q 9.03369140625 2.1594544921875003 9.034423828125 2.1792298828125003 Q 9.03515625 2.1990052734375003 9.035888671875 2.2147523437500003 Q 9.03662109375 2.2304994140625003 9.037353515625 2.2392884765625003 L 9.10107421875 2.2488099609375003 L 9.099609375 2.2766419921875003 L 8.930419921875 2.2766419921875003 M 9.305419921875 2.2825013671875003 Q 9.276123046875 2.2825013671875003 9.25341796875 2.2707826171875003 Q 9.230712890625 2.2590638671875003 9.2178955078125 2.2407533203125003 Q 9.205078125 2.2224427734375003 9.205078125 2.2026673828125003 Q 9.205078125 2.1777650390625003 9.22119140625 2.1616517578125003 Q 9.2373046875 2.1455384765625003 9.27392578125 2.1338197265625003 L 9.38525390625 2.0964662109375003 L 9.38525390625 2.0591126953125003 Q 9.38525390625 2.0408021484375003 9.374267578125 2.0257875000000003 Q 9.36328125 2.0107728515625003 9.344970703125 2.0019837890625003 Q 9.32666015625 1.9931947265625003 9.303955078125 1.9931947265625003 Q 9.28564453125 1.9931947265625003 9.279052734375 2.0008851562500003 Q 9.2724609375 2.0085755859375003 9.27099609375 2.0312806640625003 L 9.26953125 2.0620423828125003 Q 9.2431640625 2.0679017578125003 9.224853515625 2.0602113281250003 Q 9.20654296875 2.0525208984375003 9.20654296875 2.0349427734375003 Q 9.20654296875 2.0224916015625003 9.2171630859375 2.0100404296875003 Q 9.227783203125 1.9975892578125003 9.245361328125 1.9862367187500003 Q 9.262939453125 1.9748841796875003 9.283447265625 1.9668275390625003 Q 9.303955078125 1.9587708984375003 9.32373046875 1.9558412109375003 Q 9.3779296875 1.9558412109375003 9.4105224609375 1.9844056640625003 Q 9.443115234375 2.0129701171875003 9.44384765625 2.0591126953125003 L 9.4423828125 2.1821595703125003 Q 9.4423828125 2.1960755859375003 9.4434814453125 2.2092591796875003 Q 9.444580078125 2.2224427734375003 9.44677734375 2.2290345703125003 L 9.49365234375 2.2378236328125003 L 9.49365234375 2.2605287109375003 L 9.457763671875 2.2737123046875003 Q 9.447509765625 2.2773744140625003 9.438720703125 2.2799378906250003 Q 9.429931640625 2.2825013671875003 9.424072265625 2.2825013671875003 Q 9.4013671875 2.2825013671875003 9.394775390625 2.2568666015625003 L 9.38671875 2.2283021484375003 L 9.397705078125 2.2283021484375003 Q 9.37353515625 2.2554017578125003 9.3511962890625 2.2689515625000003 Q 9.328857421875 2.2825013671875003 9.305419921875 2.2825013671875003 M 9.3251953125 2.2392884765625003 Q 9.342041015625 2.2392884765625003 9.356689453125 2.2315980468750003 Q 9.371337890625 2.2239076171875003 9.38525390625 2.2077943359375003 L 9.38525390625 2.1308900390625003 L 9.30322265625 2.1528626953125003 Q 9.28564453125 2.1572572265625003 9.2779541015625 2.1667787109375003 Q 9.270263671875 2.1763001953125003 9.270263671875 2.1909486328125003 Q 9.270263671875 2.2092591796875003 9.2867431640625 2.2242738281250003 Q 9.30322265625 2.2392884765625003 9.3251953125 2.2392884765625003 M 9.693603515625 2.2825013671875003 Q 9.652587890625 2.2825013671875003 9.6181640625 2.2638246093750003 Q 9.583740234375 2.2451478515625003 9.563232421875 2.2096253906250003 Q 9.542724609375 2.1741029296875003 9.542724609375 2.1250306640625003 Q 9.542724609375 2.0774232421875003 9.5643310546875 2.0389710937500003 Q 9.5859375 2.0005189453125003 9.6236572265625 1.9781800781250003 Q 9.661376953125 1.9558412109375003 9.708251953125 1.9558412109375003 Q 9.740478515625 1.9558412109375003 9.762451171875 1.9638978515625003 Q 9.784423828125 1.9719544921875003 9.7957763671875 1.9851380859375003 Q 9.80712890625 1.9983216796875003 9.80712890625 2.0129701171875003 Q 9.80712890625 2.0246888671875003 9.7998046875 2.0323792968750003 Q 9.79248046875 2.0400697265625003 9.779296875 2.0400697265625003 Q 9.767578125 2.0400697265625003 9.7587890625 2.0356751953125003 Q 9.75 2.0312806640625003 9.737548828125 2.0180970703125003 L 9.7001953125 1.9807435546875003 L 9.7265625 1.9880677734375003 Q 9.697265625 1.9814759765625003 9.670166015625 1.9935609375000003 Q 9.64306640625 2.0056458984375003 9.62548828125 2.0353089843750003 Q 9.60791015625 2.0649720703125003 9.60791015625 2.1118470703125003 Q 9.60791015625 2.1704408203125003 9.6375732421875 2.2019349609375003 Q 9.667236328125 2.2334291015625003 9.7119140625 2.2334291015625003 Q 9.73974609375 2.2334291015625003 9.7598876953125 2.2231751953125003 Q 9.780029296875 2.2129212890625003 9.79833984375 2.1902162109375003 L 9.818115234375 2.2070619140625003 Q 9.797607421875 2.2451478515625003 9.76611328125 2.2638246093750003 Q 9.734619140625 2.2825013671875003 9.693603515625 2.2825013671875003 M 10.005615234375 2.2825013671875003 Q 9.963134765625 2.2825013671875003 9.9290771484375 2.2634583984375003 Q 9.89501953125 2.2444154296875003 9.8748779296875 2.2088929687500003 Q 9.854736328125 2.1733705078125003 9.854736328125 2.1250306640625003 Q 9.854736328125 2.0730287109375003 9.8759765625 2.0349427734375003 Q 9.897216796875 1.9968568359375003 9.931640625 1.9759828125000003 Q 9.966064453125 1.9551087890625003 10.005615234375 1.9558412109375003 Q 10.062744140625 1.9565736328125003 10.094970703125 1.9939271484375003 Q 10.127197265625 2.0312806640625003 10.127197265625 2.0993958984375003 L 10.127197265625 2.1125794921875003 L 9.90234375 2.1125794921875003 L 9.90234375 2.0803529296875003 L 10.078857421875 2.0803529296875003 L 10.07080078125 2.0898744140625003 L 10.07080078125 2.0744935546875003 Q 10.07080078125 2.0320130859375003 10.0517578125 2.0093080078125003 Q 10.03271484375 1.9866029296875003 9.999755859375 1.9866029296875003 Q 9.979248046875 1.9866029296875003 9.960205078125 1.9986878906250003 Q 9.941162109375 2.0107728515625003 9.929443359375 2.0353089843750003 Q 9.917724609375 2.0598451171875003 9.917724609375 2.0971986328125003 L 9.917724609375 2.1059876953125003 Q 9.917724609375 2.1660462890625003 9.9473876953125 2.1997376953125003 Q 9.97705078125 2.2334291015625003 10.02392578125 2.2334291015625003 Q 10.049560546875 2.2334291015625003 10.070068359375 2.2231751953125003 Q 10.090576171875 2.2129212890625003 10.109619140625 2.1902162109375003 L 10.1279296875 2.2070619140625003 Q 10.107421875 2.2451478515625003 10.075927734375 2.2638246093750003 Q 10.04443359375 2.2825013671875003 10.005615234375 2.2825013671875003 M 10.24072265625 2.1433412109375003 L 10.216552734375 1.8196107421875003 Q 10.2158203125 1.8013001953125003 10.2205810546875 1.7895814453125003 Q 10.225341796875 1.7778626953125003 10.2344970703125 1.7716371093750003 Q 10.24365234375 1.7654115234375003 10.254638671875 1.7654115234375003 Q 10.266357421875 1.7654115234375003 10.275146484375 1.7716371093750003 Q 10.283935546875 1.7778626953125003 10.2890625 1.7895814453125003 Q 10.294189453125 1.8013001953125003 10.292724609375 1.8196107421875003 L 10.2685546875 2.1433412109375003 L 10.24072265625 2.1433412109375003 M 10.254638671875 2.2839662109375003 Q 10.241455078125 2.2839662109375003 10.2308349609375 2.2781068359375003 Q 10.22021484375 2.2722474609375003 10.21435546875 2.2619935546875003 Q 10.20849609375 2.2517396484375003 10.20849609375 2.2392884765625003 Q 10.20849609375 2.2261048828125003 10.21435546875 2.2162171875000003 Q 10.22021484375 2.2063294921875003 10.2308349609375 2.2004701171875003 Q 10.241455078125 2.1946107421875003 10.254638671875 2.1946107421875003 Q 10.267822265625 2.1946107421875003 10.278076171875 2.2004701171875003 Q 10.288330078125 2.2063294921875003 10.2945556640625 2.2162171875000003 Q 10.30078125 2.2261048828125003 10.30078125 2.2392884765625003 Q 10.30078125 2.2583314453125003 10.28759765625 2.2711488281250003 Q 10.2744140625 2.2839662109375003 10.254638671875 2.2839662109375003" fill="#fe9e60" fill-rule="nonzero"></path></g></g><defs><clipPath id="SvgjsClipPath1001"><path d=" M -4.5927294531160205 -1.2494412694282213 h 4.19272945311602 v 4.775524531043943 h -4.19272945311602 Z"></path></clipPath><clipPath id="SvgjsClipPath1000d31a368b-1656-45a8-a68a-666fcd3cae2b"><path d=" M -4.5927294531160205 -1.2494412694282213 L -0.40000000000000036 -1.2494412694282213 L -0.40000000000000036 3.526083261615722 L -4.5927294531160205 3.526083261615722 Z"></path></clipPath></defs></svg>