<?xml version="1.0" encoding="utf-8"?>
<svg viewBox="336.4955 343.0046 4.1927 4.7755" width="1000px" height="1000px" preserveAspectRatio="none" xmlns="http://www.w3.org/2000/svg"><defs><clipPath id="SvgjsClipPath1001"><path d=" M -4.5927294531160205 -1.2494412694282213 h 4.19272945311602 v 4.775524531043943 h -4.19272945311602 Z"/></clipPath><clipPath id="SvgjsClipPath1000d31a368b-1656-45a8-a68a-666fcd3cae2b"><path d=" M -4.5927294531160205 -1.2494412694282213 L -0.40000000000000036 -1.2494412694282213 L -0.40000000000000036 3.526083261615722 L -4.5927294531160205 3.526083261615722 Z"/></clipPath></defs><g transform="matrix(0.9999999999999999, 0, 0, 0.9999999999999999, 341.0882403633612, 344.2540195007177)" id="object-0"><g clip-path="url(#SvgjsClipPath1001)"><g clip-path="url(#SvgjsClipPath1000d31a368b-1656-45a8-a68a-666fcd3cae2b)"><path d=" M -3.9030075479302377 -0.8767423388861955 L -3.9030075479302377 -0.37573503036278755 L -3.618180878033407 -0.16466612732399222 L -3.618180878033407 0.13543852841542625 L -3.9794737717041877 0.8068306653181538 L -4.081040906050978 1.4794435151970695 L -3.9080048416765023 2.048810750386937 L -3.4508478320945537 2.510736170032115 L -2.702646145893323 2.731990396965969 L -2.0922896577999337 2.7091020286624667 L -1.513519117965377 2.437169139576609 L -1.018729816164421 2.0496118432775594 L -0.6376003366306042 1.6257192622967012 L -0.46975230240492216 1.3309361521878464 L -1.1920138378621843 1.3001894441001423 L -1.893923799169582 1.0509732605555098 L -2.2397861178757523 0.8395228847116567 L -2.6416104970839838 0.7805090417691269 L -2.912456188675425 0.7805090417691269 L -2.880660430373811 0.4202651983122567 L -2.912456188675425 -0.7046599565243655 L -3.180765086113229 -1.1208849341235512 L -3.5450716149439705 -1.2022721570827541 L -3.8979339596229616 -1.0089798867596789 L -3.9030075479302377 -0.8767423388861955 Z" fill="#fffff2" transform="matrix(1,0,0,1,0,0)" fill-rule="nonzero"/></g><g clip-path="url(#SvgjsClipPath1000d31a368b-1656-45a8-a68a-666fcd3cae2b)"><path d=" M -3.4508478320945537 -0.7432840780365253 C -3.4508478320945537 -0.6912457149702916 -3.493033251877737 -0.6490602951871083 -3.5450716149439705 -0.6490602951871083 C -3.5971099780102045 -0.6490602951871083 -3.6392953977933877 -0.6912457149702916 -3.6392953977933877 -0.7432840780365253 C -3.6392953977933877 -0.795322441102759 -3.5971099780102045 -0.8375078608859423 -3.5450716149439705 -0.8375078608859423 C -3.493033251877737 -0.8375078608859423 -3.4508478320945537 -0.795322441102759 -3.4508478320945537 -0.7432840780365253 Z" fill="#57647a" transform="matrix(1,0,0,1,0,0)" fill-rule="nonzero"/></g><g clip-path="url(#SvgjsClipPath1000d31a368b-1656-45a8-a68a-666fcd3cae2b)"><path d=" M -4.013634661397164 -0.701264848559346 L -4.436230234840825 -0.4944112200164458 L -4.447254798907012 -0.3909939425651221 L -3.96955547877267 -0.3541245959562309 L -3.9776045549594015 -0.7046599565243655 L -4.013634661397164 -0.701264848559346 Z" fill="#ffb07b" transform="matrix(1,0,0,1,0,0)" fill-rule="nonzero"/></g><g clip-path="url(#SvgjsClipPath1000d31a368b-1656-45a8-a68a-666fcd3cae2b)"><path d=" M -4.043198803789188 -0.624340857419326 L -4.422249256535435 -0.4126234506119316 L -4.015751835465238 -0.37573503036278755 L -4.043198803789188 -0.624340857419326 Z" fill="#fe9e60" transform="matrix(1,0,0,1,0,0)" fill-rule="nonzero"/></g><g clip-path="url(#SvgjsClipPath1000d31a368b-1656-45a8-a68a-666fcd3cae2b)"><path d=" M -3.2456154629731513 -1.086552381668298 C -3.2456154629731513 -1.086552381668298 -3.4302673742616547 -1.0947349733368 -3.336024517771985 -1.0340617236922667 C -3.2417816612823156 -0.9733884740477332 -3.1604135119633647 -0.886908589141001 -3.1604135119633647 -0.7165237607616807 L -3.1604135119633647 0.5817617103337174 C -3.1604135119633647 0.7076477360029787 -3.053601126547022 0.8131821875223764 -2.9862139555334606 0.8386073499795168 C -2.9188267845199007 0.8640325124366572 -2.912456188675425 0.3490632992481124 -2.912456188675425 0.3490632992481124 L -2.951881403078208 -0.8296876683822455 Z" fill="#dce6d9" transform="matrix(1,0,0,1,0,0)" fill-rule="nonzero"/></g><g clip-path="url(#SvgjsClipPath1000d31a368b-1656-45a8-a68a-666fcd3cae2b)"><path d=" M -2.841883719739627 1.082120515088526 C -2.389991034867484 1.0630468748356077 -1.7222610368933164 1.415909219514598 -0.8841462105398286 1.5074626927286061 C -0.7084207628896908 1.526650774823042 -1.3693986922143253 1.8774913136352238 -1.3693986922143253 1.8774913136352238 L -2.132344302331062 1.8774913136352238 L -2.700738781868031 1.5189068768803573 Z" fill="#dce6d9" transform="matrix(1,0,0,1,0,0)" fill-rule="nonzero"/></g><g clip-path="url(#SvgjsClipPath1000d31a368b-1656-45a8-a68a-666fcd3cae2b)"><path d=" M -0.7075433754380565 1.5799425256896964 L -0.9669448828777472 1.6714959989037046 C -0.9669448828777472 1.6714959989037046 -1.3827502403913683 1.774493656269464 -1.703187396640398 1.9766742429503996 C -2.0236245528894274 2.1788548296313346 -2.277933398381588 2.330166017757737 -2.7865701630061643 2.330166017757737 C -3.2952069276307396 2.330166017757737 -3.663957614640411 2.12163390887258 -3.9640431967395764 1.74525376576174 L -3.9030075479302373 2.075857172265575 L -3.427444475504223 2.50056991977731 L -2.893382548422507 2.7040093667149367 L -2.335802822908943 2.731990396965969 L -1.728612559097538 2.5743086129950923 L -1.1742181315062115 2.2208168381877558 L -0.6960991912863053 1.6943843672072065 Z" fill="#dce6d9" transform="matrix(1,0,0,1,0,0)" fill-rule="nonzero"/></g><g clip-path="url(#SvgjsClipPath1000d31a368b-1656-45a8-a68a-666fcd3cae2b)"><path d=" M -0.659058181915138 1.2733719059045387 C -0.8603281303004113 1.2741891877903477 -1.0606020299834196 1.245089176753469 -1.2533165176350636 1.1870255364795768 C -1.4767642131980034 1.1196383654660165 -1.6860211204127715 1.0145426076724358 -1.8948584075419745 0.9120790122337581 C -1.9289811499544456 0.8950081042073956 -1.9632946287694462 0.8782805217055862 -1.9975318130234343 0.8614575710025123 C -2.1253252027179874 0.7986480736496524 -2.2548924409560622 0.7373453938767722 -2.3917839570512576 0.6969283501808381 C -2.534836258948146 0.6546993106608767 -2.600926422424508 0.6507129198480166 -2.821398630107992 0.6507129198480166 C -2.821398630107992 0.5878652752146509 -2.8211888200652098 -0.20107770656681323 -2.821665661071533 -0.5156783288984498 C -2.821951765675327 -0.7106490795637819 -2.899371671461923 -0.9085953181085693 -3.036587439441418 -1.0486339848454964 C -3.171342707828287 -1.1860404892275205 -3.3671717723050003 -1.2651960962771318 -3.5587664886455657 -1.2467709597928127 C -3.750361204986131 -1.2283458233084936 -3.932094849315938 -1.1080293005930841 -4.012452095701484 -0.9331240194738223 C -4.023572027968934 -0.9089386436331215 -4.033223289936911 -0.8832464502124404 -4.051610279140725 -0.8640011471972457 C -4.0681089779595 -0.8467204291281016 -4.090253474293138 -0.8361536324279848 -4.11176854049843 -0.8258538666914088 C -4.1869186830949285 -0.789613950210864 -4.459957843315455 -0.6574336232581393 -4.53266655995958 -0.5933080447278274 C -4.594617743501059 -0.538662065403216 -4.607740407995067 -0.43444369506127 -4.576211680656993 -0.3618112729781564 C -4.547296042033569 -0.29520612121496526 -4.492459326306428 -0.2603395068326304 -4.421715194608354 -0.2536637327441089 C -4.419502652339015 -0.25345392270132694 -4.417290110069677 -0.2533204072195562 -4.415077567800338 -0.25318689173778586 C -4.329246186662205 -0.24786534610722177 -4.242384828950415 -0.2510506440294593 -4.156458079611018 -0.2512795277124942 C -4.047051679120278 -0.2516610005175527 -3.9196397622307826 -0.2715929545818524 -3.8214105149282527 -0.2138570455362685 C -3.7709988837397894 -0.18423568222348607 -3.730658134604867 -0.13582678326157915 -3.716162168012649 -0.07917807171041158 C -3.699472732791345 -0.013965295685683499 -3.7174401019095944 0.0553292393531688 -3.7443530083064624 0.11703246557135993 C -3.8028327893219105 0.25110108290912336 -3.8665768950471637 0.3827473479347663 -3.9274599547344793 0.5156715468573545 C -4.057713844021659 0.8004028485529202 -4.1696951859465425 1.0939080247648294 -4.160158365820084 1.4120181969030028 C -4.149248243595414 1.779796128259776 -3.979721729027476 2.1276421055522494 -3.7098869403694392 2.3754849869986705 C -3.5941290176744767 2.481801457768438 -3.465458240528289 2.5679570907908706 -3.3241988608151756 2.6357448082497426 C -3.188203805811867 2.7009957315549764 -3.0446365156281505 2.743510875678732 -2.897445233796379 2.774658130211747 C -2.888289886474978 2.7765654942370395 -2.872840237870114 2.779579129397 -2.868014606886126 2.779979675842311 C -2.8676331340810677 2.91349515761274 -2.867137219434491 3.2091365815329764 -2.867137219434491 3.2091365815329764 L -3.072484030397411 3.2091365815329764 C -3.072484030397411 3.2091365815329764 -3.1411491353079173 3.209594348899045 -3.1748141103543186 3.217948603329824 C -3.248762613614883 3.2363546661738907 -3.3130026339867125 3.282989716592276 -3.3632235287726466 3.3518646315455642 L -4.047337783724071 3.3518646315455642 C -4.078762717701604 3.351399587026023 -4.10800161921355 3.367898251281786 -4.123849866593161 3.3950381812170694 C -4.139698113972772 3.422178111152353 -4.139698113972772 3.4557507083686794 -4.123849866593161 3.482890638303963 C -4.10800161921355 3.5100305682392463 -4.078762717701604 3.526529232495009 -4.047337783724071 3.526064187975468 L -1.0998309345198298 3.526064187975468 C -1.0684060005422973 3.526529232495009 -1.0391670990303523 3.5100305682392463 -1.0233188516507412 3.482890638303963 C -1.00747060427113 3.4557507083686794 -1.00747060427113 3.422178111152353 -1.0233188516507412 3.3950381812170694 C -1.0391670990303523 3.367898251281786 -1.0684060005422973 3.351399587026023 -1.0998309345198298 3.3518646315455642 L -2.314821818630733 3.3518646315455642 L -2.314821818630733 2.792263100165191 C -1.1958094922725153 2.6518811079037112 -0.6268046562474527 1.7135152283808839 -0.41901641933216016 1.4089664144625351 C -0.4117928146576517 1.3985868128679908 -0.406435454947335 1.3870265342641648 -0.4031852979222377 1.3748055247695585 C -0.3709508458948054 1.2443608990798498 -0.5914039799380362 1.2730667276604926 -0.659058181915138 1.2733719059045387 Z M -4.046040776186873 -0.4489778089339941 C -4.046040776186873 -0.4294082540344999 -4.046822795437243 -0.4284545720218539 -4.066335129415978 -0.428416424741348 C -4.157221025221134 -0.428206614698566 -4.375843089800085 -0.4277488473324963 -4.394268226284405 -0.4277297736922434 C -4.401439915019502 -0.4277297736922434 -4.411434502512031 -0.4294464013150061 -4.413341866537323 -0.4387352641181772 C -4.4152492305626145 -0.44764265411629023 -4.414409990391486 -0.4550241528941693 -4.40443447653921 -0.46093698137257433 C -4.151556154066018 -0.6091010188572447 -4.047757403809635 -0.6513109847369531 -4.047757403809635 -0.6513109847369531 C -4.047757403809635 -0.6513109847369531 -4.046002628906367 -0.5087736711268933 -4.046040776186873 -0.44901595621449986 Z M -2.816801882807039 0.8395991792726678 C -2.63485842843445 0.8118088854241663 -2.451045757317076 0.8600079743432907 -2.283769932298981 0.9295313930651787 C -2.0911261657445053 1.0096406821274357 -1.910727676232403 1.1166819512268142 -1.7206207038315653 1.2026277742064642 C -1.5877727994699882 1.262671593722651 -1.4518349653874383 1.316287596473605 -1.3122159187360758 1.3584594150728073 C -1.242558984532418 1.379440419351017 -1.1720246628771256 1.397674819432807 -1.1007464692519702 1.412361522427555 C -1.0289342136997317 1.4271435936235666 -0.9551955204819498 1.4301572287835278 -0.8841652841800811 1.4496886364025163 C -0.8838219586555289 1.4496886364025163 -0.9232853203388167 1.4918223077212136 -0.9834817289770275 1.5368933196388592 C -1.2015506579886432 1.7001064592830823 -1.4602082934584706 1.8174665677592896 -1.735612585070359 1.8291205619538224 C -1.9995154716097385 1.8402786415017796 -2.266775318833631 1.7727388813661957 -2.4759940787678936 1.6065121065620114 C -2.704267405314821 1.4250836404762512 -2.8447256921373123 1.1298999839220862 -2.816801882807039 0.8395610319921618 Z M -2.5006944428954228 3.2091938024537336 L -2.681493478852836 3.2091938024537336 C -2.681493478852836 3.2091938024537336 -2.6822373508227 2.806530183074373 -2.6822373508227 2.7961541227767848 C -2.661790408471571 2.796955215667408 -2.520607323319469 2.7975083512347423 -2.5008661056576993 2.7975083512347423 C -2.5008661056576993 2.8301814969879935 -2.5006944428954228 3.2091556551732294 -2.5006944428954228 3.2091556551732294 Z M -1.0619888322580393 1.9575052344962163 C -1.325033404986037 2.2194053888090393 -1.6485604909560387 2.43220999311085 -2.0041122189106915 2.5436191258281458 C -2.4416615263126404 2.680720451966123 -2.9389494749867286 2.6554669522712597 -3.334994541198327 2.4244088742474066 C -3.731039607409925 2.1933507962235526 -4.005375775167651 1.7441284209868184 -3.97752826039839 1.2864373494777872 C -3.955364690424499 0.9227793244156446 -3.758887122179186 0.597115990737316 -3.6101699491271813 0.26452892564717767 C -3.5721752577433676 0.17955585832042664 -3.536564771391169 0.09113046210789633 -3.532101539571986 -0.0018344604848279378 C -3.522564719445527 -0.1985027651326694 -3.6739522021329405 -0.39038358607702894 -3.867397061578039 -0.4270431226431384 C -3.8826559737803734 -0.5570490546070304 -3.9014244357892456 -0.7674503802369734 -3.8371271944966576 -0.8874426510680831 C -3.7882414545284275 -0.9786718723977919 -3.675363651511657 -1.0469173572227342 -3.5758183230316756 -1.0615849865772282 C -3.377147286157277 -1.0908820980057108 -3.1655443211914003 -0.9835737979427916 -3.0717783057080537 -0.8059982071881218 C -2.994758946366769 -0.6600657856130429 -2.9962466903064966 -0.4868962057567965 -2.999584577350757 -0.3219282912093051 C -3.004276692852975 -0.08900099644066528 -3.0089751662352775 0.1439326562080585 -3.013679997497664 0.3768726667368665 C -3.021442969080602 0.760977634150138 -3.022797197538559 1.1696685238494202 -2.819662928844978 1.4957705512535664 C -2.6178256676885954 1.8197554045896382 -2.2325190609393903 2.0053037769700284 -1.8508936667589992 2.013944136004601 C -1.616631217172655 2.019246607994913 -1.4716906248907282 1.9799167617933946 -1.2934856040077118 1.9145513966466428 C -1.1405150091793046 1.8584176733823055 -0.9739449088505681 1.7592347440671297 -0.8005082980307803 1.6401961552486661 C -0.8626692916150422 1.7458831958900862 -1.007915062141016 1.9036412744219746 -1.0619888322580393 1.9574670872157103 Z" fill="#57647a" transform="matrix(1,0,0,1,0,0)" fill-rule="nonzero"/></g></g></g></svg>